<svg width="24" height="24" viewBox="0 0 24 24" fill="none" xmlns="http://www.w3.org/2000/svg">
<path fill-rule="evenodd" clip-rule="evenodd" d="M2 12C2 6.48 6.48 2 12 2C17.52 2 22 6.48 22 12C22 17.52 17.52 22 12 22C6.48 22 2 17.52 2 12ZM7 17.25V14.9587L13.758 8.2007L16.0493 10.492L9.29135 17.25H7ZM17.8213 7.85853C18.0596 8.09683 18.0596 8.48177 17.8213 8.72007L16.7031 9.83825L14.4117 7.5469L15.5299 6.42873C15.7682 6.19042 16.1532 6.19042 16.3915 6.42873L17.8213 7.85853Z" fill="#FF9800"/>
</svg>
