<svg width="24" height="24" viewBox="0 0 24 24" fill="none" xmlns="http://www.w3.org/2000/svg">
<g clip-path="url(#clip0_78_3817)">
<path d="M12 24C5.38 24 0 18.62 0 12C0 5.38 5.38 0 12 0C18.62 0 24 5.38 24 12C24 18.62 18.62 24 12 24ZM5.08 19.89C6.93 21.51 9.35 22.5 12 22.5C14.65 22.5 17.07 21.51 18.92 19.89C18.24 18.63 16.51 17.9 15.09 17.32C13.34 16.61 13.13 15.61 13.13 14.82C13.13 14.03 13.51 13.15 14.09 12.63C14.73 12.06 15.07 11.28 15.07 10.36C15.07 8.75 14.12 7.14 12 7.14C9.88 7.14 9.02 8.88 9.02 10.36C9.02 11.33 9.33 12.09 9.93 12.62C10.5 13.13 10.87 13.99 10.87 14.82C10.87 15.65 10.65 16.61 8.97 17.3C7.49 17.92 5.75 18.64 5.07 19.9L5.08 19.89ZM12 5.62C14.65 5.62 16.57 7.61 16.57 10.34C16.57 11.7 16.06 12.87 15.09 13.73C14.83 13.96 14.63 14.43 14.63 14.8C14.63 15.16 14.63 15.5 15.59 15.89C17.09 16.51 18.99 17.3 20.01 18.78C21.57 16.95 22.51 14.58 22.51 11.99C22.51 6.2 17.8 1.49 12.01 1.49C6.22 1.49 1.5 6.21 1.5 12C1.5 14.59 2.44 16.96 4 18.79C5.01 17.31 6.9 16.53 8.34 15.93C9.38 15.51 9.38 15.17 9.38 14.81C9.38 14.45 9.23 13.99 8.95 13.73C8.02 12.91 7.53 11.74 7.53 10.34C7.53 7.56 9.37 5.62 12.01 5.62H12Z" fill="white"/>
</g>
<defs>
<clipPath id="clip0_78_3817">
<rect width="24" height="24" fill="white"/>
</clipPath>
</defs>
</svg>
