<svg width="24" height="14" viewBox="0 0 24 14" fill="none" xmlns="http://www.w3.org/2000/svg">
<g clip-path="url(#clip0_274_306)">
<path d="M14.6637 1.0769C11.0747 1.0769 7.16566 2.465 7.16566 2.465C7.16566 2.465 11.1884 2.26369 11.1884 3.94014C11.1884 5.50406 8.34613 6.65128 8.34613 6.65128C8.34613 6.65128 10.0714 7.05391 10.0714 8.04905C10.0714 10.3092 4.47852 11.7131 4.47852 11.7131C16.2145 12.2802 22.9156 6.02448 22.9156 4.86759C22.9156 3.79333 19.651 1.0769 14.6637 1.0769ZM5.90672 11.5171C7.61527 10.9264 10.3015 9.73077 10.3015 8.04905C10.3015 7.29215 9.53101 6.84293 8.96942 6.61524C9.83075 6.17921 11.4176 5.20516 11.4176 3.94014C11.4176 2.38589 8.57182 2.2716 8.57182 2.2716C10.015 1.86634 12.413 1.30635 14.6637 1.30635C19.5337 1.30635 22.6846 3.95156 22.6846 4.86671C22.6846 5.87767 16.5477 11.5171 5.90672 11.5171Z" fill="white"/>
<path d="M12.6978 2.99858C12.6978 2.99858 15.8425 3.70538 17.2486 4.6425L11.1179 6.22488L16.9304 6.03588C15.6353 6.97915 10.9116 9.23932 10.9116 9.23932C10.9116 9.23932 16.717 8.3778 20.3871 5.03458C17.1208 2.10981 12.6978 2.99858 12.6978 2.99858ZM20.0222 5.04073C17.7335 7.02487 14.6708 8.09122 12.7339 8.60285C12.7339 8.60285 16.4173 6.83234 17.67 5.78182L13.1915 5.92775L17.804 4.73744C16.4772 3.73087 14.0431 3.11023 14.0431 3.11023C15.5189 3.07858 17.983 3.34143 20.0222 5.04073Z" fill="white"/>
<path d="M14.5483 0C8.08875 0 2.94633 3.52607 2.94633 3.52607C2.94633 3.52607 9.28509 3.01707 9.28509 4.32606C9.28509 5.47328 4.26698 7.33961 4.26698 7.33961C4.26698 7.33961 8.22452 7.44247 8.22452 8.39629C8.22452 10.005 0 12.1703 0 12.1703C0 12.1703 2.88197 13.4907 7.38346 13.4907C15.4449 13.4907 24 8.93254 24 5.3801C24 2.10896 19.1873 0 14.5483 0ZM7.38434 13.2023C4.37277 13.2023 2.08059 12.5958 0.933622 12.2133C3.47353 11.5004 8.51456 9.89604 8.51456 8.39541C8.51456 7.58049 6.92855 7.25698 5.57793 7.12863C7.22213 6.43941 9.57514 5.28603 9.57514 4.32518C9.57514 2.78499 4.10124 3.16916 4.10124 3.16916C5.8812 2.17753 9.88458 0.287466 14.5483 0.287466C18.9554 0.287466 23.7126 2.2338 23.7126 5.37922C23.7126 8.52464 15.4846 13.2023 7.38434 13.2023Z" fill="#A1ABB2"/>
<path d="M14.6637 1.3064C12.413 1.3064 10.015 1.86638 8.57184 2.27165C8.57184 2.27165 11.4177 2.38593 11.4177 3.94018C11.4177 5.20521 9.83077 6.17925 8.96944 6.61529C9.53103 6.84297 10.3016 7.29219 10.3016 8.0491C10.3016 9.73082 7.61441 10.9273 5.90674 11.5172C16.5477 11.5172 22.6846 5.87772 22.6846 4.86676C22.6846 3.95161 19.5337 1.3064 14.6637 1.3064ZM10.9116 9.2394C10.9116 9.2394 15.6353 6.97924 16.9304 6.03596L11.1179 6.22497L17.2486 4.64258C15.8433 3.70458 12.6978 2.99867 12.6978 2.99867C12.6978 2.99867 17.1208 2.10989 20.3871 5.03466C16.717 8.37788 10.9116 9.2394 10.9116 9.2394Z" fill="#B79257"/>
<path d="M5.8742 12.1501L4.92383 12.4016C4.92383 12.4016 5.7737 12.4956 7.11374 12.4956C16.7241 12.4956 23.1052 6.66543 23.1052 5.7371C23.1052 5.63513 23.0717 5.5481 23.0717 5.5481C19.6652 9.58932 12.9015 12.3752 5.8742 12.1493V12.1501Z" fill="#F26924"/>
<path d="M14.0431 3.11018C14.0431 3.11018 16.4763 3.73083 17.804 4.7374L13.1914 5.9277L17.67 5.78177C16.4181 6.83229 12.7339 8.6028 12.7339 8.6028C14.6717 8.09117 17.7335 7.02482 20.0221 5.04069C17.983 3.34138 15.5189 3.07765 14.0431 3.11018Z" fill="#231F20"/>
<path d="M14.5482 0.287354C9.88446 0.287354 5.88108 2.17742 4.10023 3.16905C4.10023 3.16905 9.57413 2.78488 9.57413 4.32506C9.57413 5.28592 7.22112 6.44018 5.57693 7.12852C6.92755 7.25687 8.51356 7.58038 8.51356 8.3953C8.51356 9.89681 3.47253 11.5003 0.932617 12.2132C2.07959 12.5956 4.37177 13.2022 7.38334 13.2022C15.4835 13.2022 23.7116 8.65112 23.7116 5.37911C23.7116 2.10709 18.9544 0.287354 14.5482 0.287354ZM23.105 5.7369C23.105 6.66523 16.724 12.4954 7.11357 12.4954C5.77352 12.4954 4.92365 12.4014 4.92365 12.4014L5.87403 12.1499C12.9013 12.375 19.6659 9.59 23.0715 5.54877C23.0715 5.54877 23.105 5.63492 23.105 5.73778V5.7369ZM4.47756 11.713C4.47756 11.713 10.0705 10.3091 10.0705 8.04894C10.0705 7.05379 8.34517 6.65117 8.34517 6.65117C8.34517 6.65117 11.1875 5.50394 11.1875 3.94002C11.1875 2.26269 7.1647 2.46489 7.1647 2.46489C7.1647 2.46489 11.0746 1.07679 14.6628 1.07679C19.65 1.07679 22.9146 3.79233 22.9146 4.86747C22.9146 6.02525 16.2126 12.2809 4.47756 11.713Z" fill="#231F20"/>
<path d="M21.2962 10.3452C21.2962 10.0973 21.0943 9.896 20.8466 9.896C20.5989 9.896 20.397 10.0973 20.397 10.3452C20.397 10.5931 20.5989 10.7936 20.8466 10.7936C21.0943 10.7936 21.2962 10.5931 21.2962 10.3452ZM20.4931 10.3452C20.4931 10.1501 20.6509 9.9927 20.8466 9.9927C21.0423 9.9927 21.1992 10.1501 21.1992 10.3452C21.1992 10.5404 21.0405 10.6977 20.8466 10.6977C20.6526 10.6977 20.4931 10.5395 20.4931 10.3452Z" fill="#A1ABB2"/>
<path d="M21.0305 10.6011L20.9291 10.384C20.9882 10.3629 21.0305 10.3066 21.0305 10.2407C21.0305 10.1563 20.9618 10.0886 20.878 10.0886H20.6611V10.6011H20.7572V10.3937H20.826L20.9239 10.6011H21.0305ZM20.878 10.297H20.7572V10.1853H20.878C20.9097 10.1853 20.9344 10.2099 20.9344 10.2416C20.9344 10.2732 20.9097 10.2978 20.878 10.2978V10.297Z" fill="#A1ABB2"/>
</g>
<defs>
<clipPath id="clip0_274_306">
<rect width="24" height="13.4907" fill="white"/>
</clipPath>
</defs>
</svg>
