<svg width="375" height="88" viewBox="0 0 375 88" fill="none" xmlns="http://www.w3.org/2000/svg">
<g filter="url(#filter0_b_0_2074)">
<g clip-path="url(#clip0_0_2074)">
<mask id="path-1-inside-1_0_2074" fill="white">
<path d="M0 0H375V88H0V0Z"/>
</mask>
<path d="M0 0H375V88H0V0Z" fill="#1B1D1E" fill-opacity="0.9"/>
<g clip-path="url(#clip1_0_2074)">
<path d="M44.9201 35H29.0801C28.7619 35 28.4566 34.8736 28.2316 34.6485C28.0065 34.4235 27.8801 34.1183 27.8801 33.8V21.2528L25.8161 23.3072L25.1345 22.6256L36.6545 11.1056C36.6991 11.0606 36.7522 11.0249 36.8107 11.0005C36.8692 10.9762 36.932 10.9636 36.9953 10.9636C37.0587 10.9636 37.1214 10.9762 37.1799 11.0005C37.2384 11.0249 37.2915 11.0606 37.3361 11.1056L48.8561 22.6256L48.1745 23.3072L46.1201 21.2816V33.7616C46.1253 33.9224 46.098 34.0826 46.04 34.2326C45.982 34.3827 45.8945 34.5195 45.7825 34.6351C45.6706 34.7506 45.5365 34.8424 45.3884 34.9051C45.2402 34.9678 45.081 35.0001 44.9201 35ZM40.3601 34.04H44.9201C44.9838 34.04 45.0448 34.0147 45.0898 33.9697C45.1348 33.9247 45.1601 33.8637 45.1601 33.8V20.312L37.0097 12.152L28.8401 20.3024V33.8C28.8401 33.8637 28.8654 33.9247 28.9104 33.9697C28.9554 34.0147 29.0165 34.04 29.0801 34.04H33.6401V28.52C33.6401 28.2017 33.7666 27.8965 33.9916 27.6715C34.2166 27.4464 34.5219 27.32 34.8401 27.32H39.1601C39.4784 27.32 39.7836 27.4464 40.0086 27.6715C40.2337 27.8965 40.3601 28.2017 40.3601 28.52V34.04ZM34.6001 34.04H39.4001V28.52C39.4001 28.4564 39.3748 28.3953 39.3298 28.3503C39.2848 28.3053 39.2238 28.28 39.1601 28.28H34.8401C34.7765 28.28 34.7154 28.3053 34.6704 28.3503C34.6254 28.3953 34.6001 28.4564 34.6001 28.52V34.04Z" fill="url(#paint0_linear_0_2074)"/>
</g>
<path opacity="0.8" d="M29.7511 49V45.85H26.1311V49H25.1511V41.91H26.1311V44.94H29.7511V41.91H30.7311V49H29.7511ZM34.6142 48.31C34.8142 48.31 35.0042 48.2733 35.1842 48.2C35.3642 48.1267 35.5242 48.0167 35.6642 47.87C35.8042 47.7233 35.9142 47.5433 35.9942 47.33C36.0742 47.1167 36.1142 46.87 36.1142 46.59C36.1142 46.31 36.0742 46.0667 35.9942 45.86C35.9142 45.6467 35.8042 45.4667 35.6642 45.32C35.5242 45.1733 35.3642 45.0633 35.1842 44.99C35.0042 44.9167 34.8142 44.88 34.6142 44.88C34.4142 44.88 34.2242 44.9167 34.0442 44.99C33.8642 45.0633 33.7042 45.1733 33.5642 45.32C33.4242 45.4667 33.3142 45.6467 33.2342 45.86C33.1542 46.0667 33.1142 46.31 33.1142 46.59C33.1142 46.87 33.1542 47.1167 33.2342 47.33C33.3142 47.5433 33.4242 47.7233 33.5642 47.87C33.7042 48.0167 33.8642 48.1267 34.0442 48.2C34.2242 48.2733 34.4142 48.31 34.6142 48.31ZM34.6142 44.04C34.9742 44.04 35.3042 44.1067 35.6042 44.24C35.9042 44.3667 36.1642 44.5433 36.3842 44.77C36.6042 44.9967 36.7742 45.2667 36.8942 45.58C37.0142 45.8867 37.0742 46.2233 37.0742 46.59C37.0742 46.9567 37.0142 47.2967 36.8942 47.61C36.7742 47.9233 36.6042 48.1933 36.3842 48.42C36.1642 48.6467 35.9042 48.8267 35.6042 48.96C35.3042 49.0867 34.9742 49.15 34.6142 49.15C34.2542 49.15 33.9242 49.0867 33.6242 48.96C33.3242 48.8267 33.0642 48.6467 32.8442 48.42C32.6242 48.1933 32.4542 47.9233 32.3342 47.61C32.2142 47.2967 32.1542 46.9567 32.1542 46.59C32.1542 46.2233 32.2142 45.8867 32.3342 45.58C32.4542 45.2667 32.6242 44.9967 32.8442 44.77C33.0642 44.5433 33.3242 44.3667 33.6242 44.24C33.9242 44.1067 34.2542 44.04 34.6142 44.04ZM38.415 49V44.19H39.315V44.83C39.4683 44.5633 39.6783 44.3667 39.945 44.24C40.2183 44.1133 40.495 44.05 40.775 44.05C41.075 44.05 41.355 44.1233 41.615 44.27C41.8816 44.4167 42.0816 44.6467 42.215 44.96C42.4083 44.6133 42.6483 44.3767 42.935 44.25C43.2216 44.1167 43.5183 44.05 43.825 44.05C44.0316 44.05 44.235 44.0867 44.435 44.16C44.635 44.2333 44.8116 44.3467 44.965 44.5C45.125 44.6467 45.2516 44.8367 45.345 45.07C45.4383 45.2967 45.485 45.5667 45.485 45.88V49H44.555V45.98C44.555 45.6667 44.4716 45.4067 44.305 45.2C44.145 44.9867 43.8883 44.88 43.535 44.88C43.2016 44.88 42.9316 44.9967 42.725 45.23C42.525 45.4567 42.425 45.7433 42.425 46.09V49H41.485V45.98C41.485 45.6667 41.405 45.4067 41.245 45.2C41.085 44.9867 40.825 44.88 40.465 44.88C40.125 44.88 39.8516 44.9933 39.645 45.22C39.445 45.4467 39.345 45.74 39.345 46.1V49H38.415ZM50.4001 46.1C50.3868 45.7533 50.2701 45.4633 50.0501 45.23C49.8301 44.99 49.5068 44.87 49.0801 44.87C48.8801 44.87 48.7001 44.9067 48.5401 44.98C48.3868 45.0467 48.2534 45.14 48.1401 45.26C48.0334 45.3733 47.9468 45.5033 47.8801 45.65C47.8134 45.7967 47.7768 45.9467 47.7701 46.1H50.4001ZM51.3501 47.63C51.2834 47.8433 51.1834 48.0433 51.0501 48.23C50.9234 48.41 50.7668 48.57 50.5801 48.71C50.4001 48.8433 50.1934 48.95 49.9601 49.03C49.7268 49.11 49.4701 49.15 49.1901 49.15C48.8701 49.15 48.5634 49.0933 48.2701 48.98C47.9768 48.8667 47.7168 48.7 47.4901 48.48C47.2701 48.26 47.0934 47.99 46.9601 47.67C46.8334 47.35 46.7701 46.9867 46.7701 46.58C46.7701 46.2 46.8334 45.8567 46.9601 45.55C47.0868 45.2367 47.2534 44.97 47.4601 44.75C47.6734 44.5233 47.9201 44.35 48.2001 44.23C48.4801 44.1033 48.7701 44.04 49.0701 44.04C49.4368 44.04 49.7634 44.1033 50.0501 44.23C50.3434 44.35 50.5868 44.52 50.7801 44.74C50.9734 44.96 51.1201 45.2267 51.2201 45.54C51.3268 45.8467 51.3801 46.1867 51.3801 46.56C51.3801 46.62 51.3768 46.6767 51.3701 46.73C51.3701 46.7833 51.3668 46.8267 51.3601 46.86H47.7401C47.7468 47.0733 47.7868 47.27 47.8601 47.45C47.9334 47.63 48.0334 47.7867 48.1601 47.92C48.2934 48.0467 48.4468 48.1467 48.6201 48.22C48.8001 48.2867 48.9901 48.32 49.1901 48.32C49.5834 48.32 49.8834 48.2267 50.0901 48.04C50.2968 47.8533 50.4468 47.6233 50.5401 47.35L51.3501 47.63Z" fill="#D8BA90"/>
<g clip-path="url(#clip2_0_2074)">
<path d="M122.84 12.92H120.2V12.2C120.2 11.8817 120.074 11.5765 119.848 11.3515C119.623 11.1264 119.318 11 119 11H117.56C117.242 11 116.936 11.1264 116.711 11.3515C116.486 11.5765 116.36 11.8817 116.36 12.2V12.92H109.64V12.2C109.64 11.8817 109.514 11.5765 109.288 11.3515C109.063 11.1264 108.758 11 108.44 11H107C106.682 11 106.376 11.1264 106.151 11.3515C105.926 11.5765 105.8 11.8817 105.8 12.2V12.92H103.16C102.842 12.92 102.536 13.0464 102.311 13.2715C102.086 13.4965 101.96 13.8017 101.96 14.12V17.72H124.04V14.12C124.04 13.9624 124.009 13.8064 123.949 13.6608C123.888 13.5152 123.8 13.3829 123.688 13.2715C123.577 13.16 123.445 13.0717 123.299 13.0113C123.154 12.951 122.998 12.92 122.84 12.92ZM106.76 12.2C106.76 12.1363 106.785 12.0753 106.83 12.0303C106.875 11.9853 106.936 11.96 107 11.96H108.44C108.504 11.96 108.565 11.9853 108.61 12.0303C108.655 12.0753 108.68 12.1363 108.68 12.2V14.6C108.68 14.6637 108.655 14.7247 108.61 14.7697C108.565 14.8147 108.504 14.84 108.44 14.84H107C106.936 14.84 106.875 14.8147 106.83 14.7697C106.785 14.7247 106.76 14.6637 106.76 14.6V12.2ZM117.32 12.2C117.32 12.1363 117.345 12.0753 117.39 12.0303C117.435 11.9853 117.496 11.96 117.56 11.96H119C119.064 11.96 119.125 11.9853 119.17 12.0303C119.215 12.0753 119.24 12.1363 119.24 12.2V14.6C119.24 14.6637 119.215 14.7247 119.17 14.7697C119.125 14.8147 119.064 14.84 119 14.84H117.56C117.496 14.84 117.435 14.8147 117.39 14.7697C117.345 14.7247 117.32 14.6637 117.32 14.6V12.2Z" fill="url(#paint1_linear_0_2074)"/>
<path d="M101.96 33.8C101.96 34.1183 102.086 34.4235 102.311 34.6485C102.536 34.8736 102.842 35 103.16 35H122.84C122.998 35 123.154 34.969 123.299 34.9087C123.445 34.8484 123.577 34.76 123.688 34.6485C123.8 34.5371 123.888 34.4048 123.949 34.2592C124.009 34.1136 124.04 33.9576 124.04 33.8V18.68H101.96V33.8Z" fill="url(#paint2_linear_0_2074)"/>
</g>
<path d="M97.3398 49V41.91H101.72V43.03H98.5398V44.91H101.42V46H98.5398V47.88H101.72V49H97.3398ZM105.515 49H104.355L102.375 44.13H103.655L104.945 47.61L106.205 44.13H107.425L105.515 49ZM111.579 46.03C111.573 45.89 111.543 45.7567 111.489 45.63C111.443 45.4967 111.369 45.38 111.269 45.28C111.169 45.18 111.046 45.1 110.899 45.04C110.753 44.98 110.579 44.95 110.379 44.95C110.199 44.95 110.036 44.9833 109.889 45.05C109.749 45.11 109.629 45.1933 109.529 45.3C109.429 45.4 109.349 45.5167 109.289 45.65C109.229 45.7767 109.196 45.9033 109.189 46.03H111.579ZM112.689 47.61C112.623 47.8233 112.526 48.0233 112.399 48.21C112.273 48.3967 112.116 48.56 111.929 48.7C111.743 48.84 111.529 48.95 111.289 49.03C111.049 49.11 110.783 49.15 110.489 49.15C110.156 49.15 109.839 49.0933 109.539 48.98C109.239 48.86 108.976 48.69 108.749 48.47C108.523 48.2433 108.339 47.97 108.199 47.65C108.066 47.3233 107.999 46.9533 107.999 46.54C107.999 46.1533 108.063 45.8033 108.189 45.49C108.323 45.1767 108.499 44.91 108.719 44.69C108.939 44.4633 109.193 44.29 109.479 44.17C109.766 44.0433 110.063 43.98 110.369 43.98C110.743 43.98 111.076 44.04 111.369 44.16C111.669 44.28 111.919 44.45 112.119 44.67C112.326 44.89 112.483 45.1567 112.589 45.47C112.696 45.7767 112.749 46.1233 112.749 46.51C112.749 46.6033 112.746 46.6867 112.739 46.76C112.733 46.8267 112.726 46.8667 112.719 46.88H109.159C109.166 47.0667 109.206 47.2367 109.279 47.39C109.353 47.5433 109.449 47.6767 109.569 47.79C109.689 47.9033 109.826 47.9933 109.979 48.06C110.139 48.12 110.309 48.15 110.489 48.15C110.843 48.15 111.113 48.07 111.299 47.91C111.493 47.7433 111.629 47.54 111.709 47.3L112.689 47.61ZM115.176 49H114.016V44.13H115.146V44.78C115.306 44.5 115.516 44.3 115.776 44.18C116.042 44.0533 116.312 43.99 116.586 43.99C116.886 43.99 117.146 44.04 117.366 44.14C117.586 44.24 117.766 44.38 117.906 44.56C118.052 44.7333 118.162 44.9367 118.236 45.17C118.309 45.4033 118.346 45.6533 118.346 45.92V49H117.186V46.12C117.186 45.82 117.109 45.5667 116.956 45.36C116.809 45.1467 116.552 45.04 116.186 45.04C115.852 45.04 115.599 45.1533 115.426 45.38C115.259 45.6 115.176 45.87 115.176 46.19V49ZM121.359 44.13H122.369V45.16H121.359V47.42C121.359 47.6333 121.409 47.79 121.509 47.89C121.609 47.9833 121.766 48.03 121.979 48.03C122.059 48.03 122.139 48.0267 122.219 48.02C122.299 48.0067 122.353 47.9967 122.379 47.99V48.95C122.346 48.9633 122.273 48.9833 122.159 49.01C122.046 49.0433 121.883 49.06 121.669 49.06C121.216 49.06 120.859 48.9333 120.599 48.68C120.339 48.4267 120.209 48.07 120.209 47.61V45.16H119.309V44.13H119.559C119.819 44.13 120.009 44.0567 120.129 43.91C120.249 43.7633 120.309 43.5833 120.309 43.37V42.64H121.359V44.13ZM124.292 47.4C124.312 47.62 124.402 47.8133 124.562 47.98C124.728 48.1467 124.968 48.23 125.282 48.23C125.522 48.23 125.702 48.1767 125.822 48.07C125.948 47.9567 126.012 47.8233 126.012 47.67C126.012 47.5367 125.965 47.4233 125.872 47.33C125.778 47.2367 125.635 47.17 125.442 47.13L124.722 46.97C124.288 46.8767 123.962 46.7033 123.742 46.45C123.522 46.19 123.412 45.89 123.412 45.55C123.412 45.3367 123.458 45.1367 123.552 44.95C123.645 44.7567 123.772 44.59 123.932 44.45C124.092 44.3033 124.278 44.19 124.492 44.11C124.712 44.0233 124.948 43.98 125.202 43.98C125.542 43.98 125.825 44.03 126.052 44.13C126.285 44.2233 126.475 44.34 126.622 44.48C126.768 44.62 126.875 44.77 126.942 44.93C127.015 45.0833 127.062 45.22 127.082 45.34L126.102 45.62C126.088 45.5533 126.065 45.4767 126.032 45.39C125.998 45.3033 125.945 45.2233 125.872 45.15C125.805 45.0767 125.715 45.0167 125.602 44.97C125.495 44.9167 125.362 44.89 125.202 44.89C124.995 44.89 124.825 44.9467 124.692 45.06C124.565 45.1667 124.502 45.2967 124.502 45.45C124.502 45.5833 124.545 45.6933 124.632 45.78C124.718 45.8667 124.838 45.9267 124.992 45.96L125.732 46.11C126.192 46.21 126.538 46.3933 126.772 46.66C127.012 46.92 127.132 47.23 127.132 47.59C127.132 47.7767 127.092 47.9633 127.012 48.15C126.938 48.33 126.825 48.4967 126.672 48.65C126.525 48.7967 126.335 48.9167 126.102 49.01C125.868 49.1033 125.598 49.15 125.292 49.15C124.938 49.15 124.638 49.1 124.392 49C124.145 48.9 123.942 48.7767 123.782 48.63C123.622 48.4767 123.502 48.3167 123.422 48.15C123.342 47.9767 123.295 47.82 123.282 47.68L124.292 47.4Z" fill="#D8BA90"/>
<path d="M190.768 13C181.219 13 173.616 18.2273 173.616 18.2273C173.616 18.2273 182.986 17.4722 182.986 19.4139C182.986 21.1153 175.567 23.883 175.567 23.883C175.567 23.883 181.42 24.0341 181.42 25.4488C181.42 27.8313 169.261 31.0428 169.261 31.0428C169.261 31.0428 173.52 33 180.175 33C192.09 33 204.739 26.2409 204.739 20.9766C204.739 16.1284 197.626 13 190.765 13H190.768ZM180.178 32.5716C175.724 32.5716 172.337 31.6716 170.642 31.1045C174.396 30.0473 181.848 27.671 181.848 25.4426C181.848 24.2344 179.503 23.7567 177.509 23.5656C179.937 22.5454 183.417 20.8348 183.417 19.4078C183.417 17.1239 175.326 17.6941 175.326 17.6941C177.955 16.227 183.873 13.4253 190.768 13.4253C197.284 13.4253 204.314 16.3102 204.314 20.9735C204.314 25.6368 192.152 32.5716 180.178 32.5716Z" fill="url(#paint3_linear_0_2074)"/>
<path d="M190.937 14.9356C187.609 14.9356 184.064 15.7647 181.931 16.3657C181.931 16.3657 186.139 16.5352 186.139 18.8407C186.139 20.7146 183.793 22.1601 182.52 22.8074C183.349 23.1433 184.49 23.8091 184.49 24.931C184.49 27.4244 180.517 29.1966 177.992 30.072C193.724 30.072 202.794 21.7101 202.794 20.2122C202.794 18.8561 198.137 14.9356 190.937 14.9356ZM185.39 26.697C185.39 26.697 192.374 23.3467 194.288 21.9474L185.695 22.2279L194.756 19.8824C192.679 18.4924 188.028 17.4444 188.028 17.4444C188.028 17.4444 194.565 16.1253 199.395 20.4619C193.97 25.4179 185.386 26.6939 185.386 26.6939L185.39 26.697Z" fill="url(#paint4_linear_0_2074)"/>
<path d="M177.943 31.012L176.538 31.385C176.538 31.385 177.795 31.5237 179.774 31.5237C193.983 31.5237 203.414 22.8813 203.414 21.5036C203.414 21.3526 203.365 21.2231 203.365 21.2231C198.331 27.2148 188.33 31.3449 177.943 31.0089V31.012Z" fill="url(#paint5_linear_0_2074)"/>
<path d="M199.58 20.4649C194.679 16.1284 188.046 17.4475 188.046 17.4475C188.046 17.4475 192.762 18.4955 194.873 19.8855L185.679 22.231L194.398 21.9505C192.456 23.3498 185.369 26.7001 185.369 26.7001C185.369 26.7001 194.079 25.4241 199.583 20.468L199.58 20.4649Z" fill="#121213"/>
<path d="M170.402 31.1075C172.122 31.6746 175.559 32.5746 180.078 32.5746C192.228 32.5746 204.569 25.8278 204.569 20.9765C204.569 16.1252 197.435 13.4253 190.824 13.4253C183.828 13.4253 177.823 16.227 175.152 17.6971C175.152 17.6971 183.362 17.1269 183.362 19.4108C183.362 20.8348 179.834 22.5453 177.366 23.5686C179.393 23.7597 181.77 24.2374 181.77 25.4456C181.77 27.6709 174.208 30.0504 170.398 31.1075H170.402ZM203.659 21.5067C203.659 22.8813 194.089 31.5267 179.671 31.5267C177.66 31.5267 176.387 31.388 176.387 31.388L177.814 31.0151C188.353 31.351 198.502 27.2179 203.609 21.2293C203.609 21.2293 203.659 21.3587 203.659 21.5097V21.5067ZM182.955 27.4983C183.846 26.7586 184.453 25.9018 184.453 24.934C184.453 23.8121 183.299 23.1464 182.455 22.8104C183.746 22.1632 186.126 20.7207 186.126 18.8437C186.126 16.5413 181.857 16.3687 181.857 16.3687C184.022 15.7677 187.618 14.9386 190.996 14.9386C198.301 14.9386 203.027 18.8591 203.027 20.2152C203.027 21.7132 193.82 30.075 177.861 30.075C179.43 29.5387 181.548 28.6665 182.955 27.4983Z" fill="#121213"/>
<path opacity="0.8" d="M177.63 48.13C177.957 48.13 178.267 48.0767 178.56 47.97C178.854 47.8567 179.11 47.69 179.33 47.47C179.55 47.25 179.724 46.9733 179.85 46.64C179.977 46.3067 180.04 45.9167 180.04 45.47C180.04 45.0233 179.977 44.6333 179.85 44.3C179.724 43.96 179.55 43.68 179.33 43.46C179.117 43.2333 178.864 43.0633 178.57 42.95C178.284 42.8367 177.977 42.78 177.65 42.78H176.18V48.13H177.63ZM175.2 49V41.91H177.68C178.127 41.91 178.554 41.9867 178.96 42.14C179.374 42.2933 179.734 42.52 180.04 42.82C180.347 43.12 180.59 43.4933 180.77 43.94C180.957 44.38 181.05 44.89 181.05 45.47C181.05 46.05 180.957 46.56 180.77 47C180.59 47.44 180.344 47.81 180.03 48.11C179.717 48.4033 179.354 48.6267 178.94 48.78C178.534 48.9267 178.107 49 177.66 49H175.2ZM185.625 48.42C185.492 48.6733 185.292 48.86 185.025 48.98C184.758 49.0933 184.485 49.15 184.205 49.15C183.925 49.15 183.672 49.1 183.445 49C183.225 48.9 183.038 48.7633 182.885 48.59C182.732 48.4167 182.612 48.2133 182.525 47.98C182.445 47.7467 182.405 47.4933 182.405 47.22V44.19H183.345V47.08C183.345 47.2467 183.365 47.4067 183.405 47.56C183.445 47.7067 183.508 47.8367 183.595 47.95C183.682 48.0633 183.792 48.1533 183.925 48.22C184.065 48.2867 184.235 48.32 184.435 48.32C184.815 48.32 185.098 48.2067 185.285 47.98C185.478 47.7533 185.575 47.4567 185.575 47.09V44.19H186.515V48.11C186.515 48.3033 186.518 48.48 186.525 48.64C186.538 48.7933 186.552 48.9133 186.565 49H185.665C185.652 48.9467 185.642 48.8633 185.635 48.75C185.628 48.63 185.625 48.52 185.625 48.42ZM190.281 44.91C190.088 44.91 189.904 44.9467 189.731 45.02C189.558 45.0867 189.401 45.19 189.261 45.33C189.128 45.47 189.021 45.6467 188.941 45.86C188.861 46.0667 188.821 46.31 188.821 46.59C188.821 46.8633 188.861 47.1067 188.941 47.32C189.021 47.5267 189.128 47.7033 189.261 47.85C189.394 47.99 189.551 48.0967 189.731 48.17C189.911 48.2433 190.098 48.28 190.291 48.28C190.518 48.28 190.708 48.2467 190.861 48.18C191.021 48.1133 191.151 48.03 191.251 47.93C191.358 47.83 191.441 47.7233 191.501 47.61C191.561 47.49 191.604 47.3833 191.631 47.29L192.461 47.65C192.401 47.8233 192.314 48 192.201 48.18C192.088 48.3533 191.941 48.5133 191.761 48.66C191.581 48.8067 191.368 48.9233 191.121 49.01C190.881 49.1033 190.604 49.15 190.291 49.15C189.938 49.15 189.611 49.0867 189.311 48.96C189.018 48.8267 188.764 48.6467 188.551 48.42C188.338 48.1867 188.168 47.9167 188.041 47.61C187.921 47.2967 187.861 46.9567 187.861 46.59C187.861 46.2167 187.921 45.8733 188.041 45.56C188.168 45.2467 188.338 44.98 188.551 44.76C188.771 44.5333 189.028 44.3567 189.321 44.23C189.621 44.1033 189.941 44.04 190.281 44.04C190.601 44.04 190.881 44.0867 191.121 44.18C191.368 44.2667 191.578 44.3833 191.751 44.53C191.931 44.6767 192.074 44.8433 192.181 45.03C192.288 45.21 192.368 45.39 192.421 45.57L191.571 45.93C191.538 45.81 191.491 45.69 191.431 45.57C191.371 45.45 191.288 45.3433 191.181 45.25C191.081 45.15 190.958 45.07 190.811 45.01C190.664 44.9433 190.488 44.91 190.281 44.91ZM195.972 46.22L198.062 49H196.882L195.312 46.88L194.642 47.55V49H193.712V41.76H194.642V46.32L196.722 44.19H198.022L195.972 46.22ZM199.429 47.45C199.462 47.7033 199.572 47.9167 199.759 48.09C199.946 48.2633 200.209 48.35 200.549 48.35C200.816 48.35 201.019 48.2867 201.159 48.16C201.299 48.0333 201.369 47.8833 201.369 47.71C201.369 47.5567 201.316 47.4267 201.209 47.32C201.102 47.2133 200.949 47.1367 200.749 47.09L199.929 46.91C199.549 46.83 199.252 46.67 199.039 46.43C198.832 46.19 198.729 45.9 198.729 45.56C198.729 45.3533 198.772 45.16 198.859 44.98C198.952 44.7933 199.076 44.63 199.229 44.49C199.382 44.35 199.562 44.24 199.769 44.16C199.982 44.08 200.206 44.04 200.439 44.04C200.766 44.04 201.039 44.0867 201.259 44.18C201.486 44.2733 201.669 44.39 201.809 44.53C201.949 44.6633 202.052 44.8033 202.119 44.95C202.192 45.0967 202.242 45.2233 202.269 45.33L201.439 45.64C201.426 45.58 201.402 45.5033 201.369 45.41C201.336 45.3167 201.282 45.23 201.209 45.15C201.136 45.0633 201.036 44.99 200.909 44.93C200.782 44.87 200.626 44.84 200.439 44.84C200.199 44.84 200.006 44.9067 199.859 45.04C199.712 45.1667 199.639 45.3133 199.639 45.48C199.639 45.7867 199.822 45.98 200.189 46.06L200.969 46.23C201.409 46.3233 201.739 46.4967 201.959 46.75C202.186 46.9967 202.299 47.3 202.299 47.66C202.299 47.8333 202.262 48.0067 202.189 48.18C202.116 48.3533 202.006 48.5133 201.859 48.66C201.719 48.8067 201.539 48.9233 201.319 49.01C201.099 49.1033 200.839 49.15 200.539 49.15C200.206 49.15 199.919 49.1033 199.679 49.01C199.446 48.9167 199.249 48.8 199.089 48.66C198.936 48.52 198.816 48.37 198.729 48.21C198.649 48.0433 198.599 47.89 198.579 47.75L199.429 47.45Z" fill="#D8BA90"/>
<g clip-path="url(#clip3_0_2074)">
<path d="M274.04 23.52H273.08V19.92C273.08 19.8564 273.055 19.7953 273.01 19.7503C272.965 19.7053 272.904 19.68 272.84 19.68H271.16V18.72H272.84C272.998 18.72 273.154 18.7511 273.299 18.8114C273.445 18.8717 273.577 18.9601 273.689 19.0715C273.8 19.1829 273.888 19.3152 273.949 19.4608C274.009 19.6064 274.04 19.7624 274.04 19.92V23.52Z" fill="url(#paint6_linear_0_2074)"/>
<path d="M268.28 26.4C268.28 26.5899 268.336 26.7755 268.442 26.9334C268.547 27.0912 268.697 27.2143 268.873 27.2869C269.048 27.3596 269.241 27.3786 269.427 27.3416C269.614 27.3045 269.785 27.2131 269.919 27.0788C270.053 26.9446 270.145 26.7735 270.182 26.5873C270.219 26.4011 270.2 26.2081 270.127 26.0326C270.054 25.8572 269.931 25.7073 269.773 25.6018C269.615 25.4963 269.43 25.44 269.24 25.44C268.985 25.44 268.741 25.5412 268.561 25.7212C268.381 25.9012 268.28 26.1454 268.28 26.4ZM275 24.72V28.08C275.01 28.3617 274.918 28.6375 274.742 28.8576C274.566 29.0776 274.317 29.2275 274.04 29.28V32.88C274.04 33.0376 274.009 33.1936 273.949 33.3392C273.888 33.4848 273.8 33.6171 273.689 33.7285C273.577 33.84 273.445 33.9284 273.299 33.9887C273.154 34.049 272.998 34.08 272.84 34.08H253.4C252.763 34.08 252.153 33.8272 251.703 33.3771C251.253 32.927 251 32.3165 251 31.68V17.76L251.048 16.8C251.157 16.2571 251.451 15.7688 251.88 15.4187C252.309 15.0685 252.846 14.8781 253.4 14.88H270.92C271.238 14.88 271.543 15.0064 271.769 15.2315C271.994 15.4565 272.12 15.7618 272.12 16.08V19.2C272.12 19.3273 272.069 19.4494 271.979 19.5394C271.889 19.6294 271.767 19.68 271.64 19.68H253.4C252.879 19.6794 252.373 19.5073 251.96 19.1904V31.6704C251.959 31.8603 251.995 32.0486 252.067 32.2244C252.139 32.4002 252.245 32.5601 252.378 32.6949C252.512 32.8296 252.671 32.9365 252.847 33.0095C253.022 33.0825 253.21 33.12 253.4 33.12H272.84C272.904 33.12 272.965 33.0947 273.01 33.0497C273.055 33.0047 273.08 32.9437 273.08 32.88V29.28H269.24C268.476 29.28 267.744 28.9766 267.204 28.4365C266.663 27.8964 266.36 27.1638 266.36 26.4C266.36 25.6362 266.663 24.9037 267.204 24.3636C267.744 23.8234 268.476 23.52 269.24 23.52H273.8C274.118 23.52 274.423 23.6464 274.649 23.8715C274.874 24.0965 275 24.4018 275 24.72ZM252.382 16.2624C252.112 16.5322 251.96 16.8982 251.96 17.28C251.958 17.474 251.996 17.6663 252.072 17.8448C252.148 18.0232 252.26 18.184 252.402 18.3168C252.669 18.5761 253.027 18.7208 253.4 18.72H271.16V17.76H253.88V16.8H271.16V16.08C271.16 16.0164 271.135 15.9553 271.09 15.9103C271.045 15.8653 270.984 15.84 270.92 15.84H253.4C253.018 15.8414 252.653 15.9932 252.382 16.2624ZM274.04 24.72C274.04 24.6564 274.015 24.5953 273.97 24.5503C273.925 24.5053 273.864 24.48 273.8 24.48H269.24C268.731 24.48 268.242 24.6823 267.882 25.0424C267.522 25.4024 267.32 25.8908 267.32 26.4C267.32 26.9092 267.522 27.3976 267.882 27.7577C268.242 28.1177 268.731 28.32 269.24 28.32H273.8C273.864 28.32 273.925 28.2947 273.97 28.2497C274.015 28.2047 274.04 28.1437 274.04 28.08V24.72Z" fill="url(#paint7_linear_0_2074)"/>
</g>
<path opacity="0.8" d="M257.21 41.91H258.22L256.2 49H255.19L253.34 43.25L251.51 49H250.53L248.48 41.91H249.49L251.05 47.46L252.83 41.91H253.86L255.68 47.52L257.21 41.91ZM258.577 47.71C258.577 47.4967 258.613 47.3067 258.687 47.14C258.76 46.9667 258.86 46.82 258.987 46.7C259.12 46.58 259.277 46.4833 259.457 46.41C259.637 46.3367 259.83 46.2833 260.037 46.25L261.337 46.06C261.483 46.04 261.58 45.9967 261.627 45.93C261.68 45.8633 261.707 45.7867 261.707 45.7C261.707 45.4667 261.623 45.2667 261.457 45.1C261.297 44.9267 261.033 44.84 260.667 44.84C260.333 44.84 260.077 44.9333 259.897 45.12C259.717 45.3 259.61 45.53 259.577 45.81L258.677 45.6C258.703 45.3733 258.77 45.1633 258.877 44.97C258.99 44.7767 259.133 44.6133 259.307 44.48C259.48 44.34 259.68 44.2333 259.907 44.16C260.14 44.08 260.387 44.04 260.647 44.04C261.007 44.04 261.313 44.09 261.567 44.19C261.82 44.2833 262.027 44.41 262.187 44.57C262.347 44.73 262.463 44.9167 262.537 45.13C262.61 45.3433 262.647 45.5667 262.647 45.8V48.21C262.647 48.4233 262.653 48.5933 262.667 48.72C262.68 48.8467 262.693 48.94 262.707 49H261.787C261.773 48.94 261.76 48.86 261.747 48.76C261.74 48.66 261.737 48.5233 261.737 48.35C261.683 48.4367 261.613 48.5267 261.527 48.62C261.44 48.7133 261.333 48.8 261.207 48.88C261.08 48.96 260.93 49.0233 260.757 49.07C260.59 49.1233 260.4 49.15 260.187 49.15C259.94 49.15 259.717 49.11 259.517 49.03C259.323 48.95 259.157 48.8467 259.017 48.72C258.877 48.5867 258.767 48.4333 258.687 48.26C258.613 48.0867 258.577 47.9033 258.577 47.71ZM260.317 48.36C260.51 48.36 260.69 48.3367 260.857 48.29C261.03 48.2367 261.177 48.1567 261.297 48.05C261.423 47.9367 261.523 47.79 261.597 47.61C261.67 47.4233 261.707 47.2 261.707 46.94V46.72L260.237 46.94C260.037 46.9733 259.87 47.05 259.737 47.17C259.603 47.2833 259.537 47.4467 259.537 47.66C259.537 47.84 259.607 48.0033 259.747 48.15C259.887 48.29 260.077 48.36 260.317 48.36ZM264.271 49V41.76H265.211V49H264.271ZM266.872 49V41.76H267.812V49H266.872ZM272.783 46.1C272.77 45.7533 272.653 45.4633 272.433 45.23C272.213 44.99 271.89 44.87 271.463 44.87C271.263 44.87 271.083 44.9067 270.923 44.98C270.77 45.0467 270.636 45.14 270.523 45.26C270.416 45.3733 270.33 45.5033 270.263 45.65C270.196 45.7967 270.16 45.9467 270.153 46.1H272.783ZM273.733 47.63C273.666 47.8433 273.566 48.0433 273.433 48.23C273.306 48.41 273.15 48.57 272.963 48.71C272.783 48.8433 272.576 48.95 272.343 49.03C272.11 49.11 271.853 49.15 271.573 49.15C271.253 49.15 270.946 49.0933 270.653 48.98C270.36 48.8667 270.1 48.7 269.873 48.48C269.653 48.26 269.476 47.99 269.343 47.67C269.216 47.35 269.153 46.9867 269.153 46.58C269.153 46.2 269.216 45.8567 269.343 45.55C269.47 45.2367 269.636 44.97 269.843 44.75C270.056 44.5233 270.303 44.35 270.583 44.23C270.863 44.1033 271.153 44.04 271.453 44.04C271.82 44.04 272.146 44.1033 272.433 44.23C272.726 44.35 272.97 44.52 273.163 44.74C273.356 44.96 273.503 45.2267 273.603 45.54C273.71 45.8467 273.763 46.1867 273.763 46.56C273.763 46.62 273.76 46.6767 273.753 46.73C273.753 46.7833 273.75 46.8267 273.743 46.86H270.123C270.13 47.0733 270.17 47.27 270.243 47.45C270.316 47.63 270.416 47.7867 270.543 47.92C270.676 48.0467 270.83 48.1467 271.003 48.22C271.183 48.2867 271.373 48.32 271.573 48.32C271.966 48.32 272.266 48.2267 272.473 48.04C272.68 47.8533 272.83 47.6233 272.923 47.35L273.733 47.63ZM276.343 44.19H277.383V45.04H276.343V47.54C276.343 47.76 276.393 47.9267 276.493 48.04C276.593 48.1467 276.766 48.2 277.013 48.2C277.073 48.2 277.14 48.1967 277.213 48.19C277.286 48.1833 277.343 48.1733 277.383 48.16V48.96C277.343 48.9733 277.266 48.99 277.153 49.01C277.04 49.0367 276.903 49.05 276.743 49.05C276.33 49.05 276.003 48.9333 275.763 48.7C275.523 48.46 275.403 48.12 275.403 47.68V45.04H274.483V44.19H274.743C275.003 44.19 275.19 44.12 275.303 43.98C275.423 43.84 275.483 43.6633 275.483 43.45V42.67H276.343V44.19Z" fill="#D8BA90"/>
<g clip-path="url(#clip4_0_2074)">
<path d="M338.096 36C332.278 36 326.096 34.5792 326.096 31.9392C326.096 30.336 328.429 29.0592 332.499 28.32L332.662 29.28C328.822 29.9328 327.066 31.1232 327.066 31.9488C327.056 33.408 331.76 35.04 338.096 35.04C344.432 35.04 349.136 33.408 349.136 31.9392C349.136 31.1136 347.379 29.9232 343.53 29.2704L343.693 28.3104C347.763 29.0016 350.096 30.3168 350.096 31.9296C350.096 34.5792 343.914 36 338.096 36ZM338 31.824C337.878 31.8223 337.761 31.7742 337.674 31.6896C335.6 29.7408 330.8 24.6432 330.8 19.3632C330.756 18.3985 330.911 17.4351 331.256 16.5328C331.6 15.6305 332.126 14.8086 332.801 14.1182C333.476 13.4277 334.286 12.8834 335.18 12.519C336.075 12.1546 337.034 11.978 338 12C338.965 11.978 339.925 12.1546 340.819 12.519C341.714 12.8834 342.524 13.4277 343.199 14.1182C343.874 14.8086 344.4 15.6305 344.744 16.5328C345.089 17.4351 345.244 18.3985 345.2 19.3632C345.2 24.5856 340.4 29.7216 338.326 31.6896C338.239 31.7742 338.122 31.8223 338 31.824ZM338 12.96C337.162 12.942 336.329 13.0965 335.552 13.414C334.776 13.7316 334.074 14.2053 333.489 14.8059C332.904 15.4064 332.448 16.1208 332.151 16.9048C331.853 17.6888 331.72 18.5256 331.76 19.3632C331.76 24.0864 336.176 28.8864 338 30.672C339.824 28.8768 344.24 24.0384 344.24 19.3632C344.28 18.5256 344.147 17.6888 343.849 16.9048C343.552 16.1208 343.096 15.4064 342.511 14.8059C341.926 14.2053 341.223 13.7316 340.447 13.414C339.671 13.0965 338.838 12.942 338 12.96ZM338 22.56C337.338 22.5581 336.692 22.3602 336.142 21.9914C335.593 21.6225 335.165 21.0991 334.912 20.4873C334.66 19.8755 334.594 19.2026 334.724 18.5536C334.854 17.9046 335.172 17.3085 335.64 16.8405C336.108 16.3725 336.705 16.0536 337.354 15.9241C338.003 15.7945 338.675 15.86 339.287 16.1124C339.899 16.3648 340.422 16.7927 340.791 17.3422C341.16 17.8917 341.358 18.5382 341.36 19.2C341.361 19.6416 341.275 20.0791 341.107 20.4873C340.938 20.8955 340.691 21.2665 340.379 21.5787C340.066 21.891 339.695 22.1384 339.287 22.3068C338.879 22.4752 338.442 22.5613 338 22.56ZM338 16.8C337.525 16.8 337.061 16.9408 336.667 17.2045C336.272 17.4682 335.964 17.843 335.783 18.2816C335.601 18.7201 335.553 19.2027 335.646 19.6682C335.739 20.1338 335.967 20.5614 336.303 20.8971C336.639 21.2327 337.066 21.4613 337.532 21.5539C337.997 21.6465 338.48 21.599 338.918 21.4173C339.357 21.2357 339.732 20.9281 339.995 20.5334C340.259 20.1387 340.4 19.6747 340.4 19.2C340.4 18.5635 340.147 17.953 339.697 17.5029C339.247 17.0529 338.636 16.8 338 16.8Z" fill="url(#paint8_linear_0_2074)"/>
</g>
<path opacity="0.8" d="M332.931 41.91H333.961L331.231 49H330.261L327.591 41.91H328.631L330.771 47.74L332.931 41.91ZM335.039 49V44.19H335.969V49H335.039ZM334.829 42.37C334.829 42.1767 334.892 42.0167 335.019 41.89C335.152 41.7567 335.312 41.69 335.499 41.69C335.692 41.69 335.852 41.7567 335.979 41.89C336.112 42.0167 336.179 42.1767 336.179 42.37C336.179 42.5567 336.112 42.7167 335.979 42.85C335.852 42.9767 335.692 43.04 335.499 43.04C335.312 43.04 335.152 42.9767 335.019 42.85C334.892 42.7167 334.829 42.5567 334.829 42.37ZM338.1 47.45C338.133 47.7033 338.243 47.9167 338.43 48.09C338.617 48.2633 338.88 48.35 339.22 48.35C339.487 48.35 339.69 48.2867 339.83 48.16C339.97 48.0333 340.04 47.8833 340.04 47.71C340.04 47.5567 339.987 47.4267 339.88 47.32C339.773 47.2133 339.62 47.1367 339.42 47.09L338.6 46.91C338.22 46.83 337.923 46.67 337.71 46.43C337.503 46.19 337.4 45.9 337.4 45.56C337.4 45.3533 337.443 45.16 337.53 44.98C337.623 44.7933 337.747 44.63 337.9 44.49C338.053 44.35 338.233 44.24 338.44 44.16C338.653 44.08 338.877 44.04 339.11 44.04C339.437 44.04 339.71 44.0867 339.93 44.18C340.157 44.2733 340.34 44.39 340.48 44.53C340.62 44.6633 340.723 44.8033 340.79 44.95C340.863 45.0967 340.913 45.2233 340.94 45.33L340.11 45.64C340.097 45.58 340.073 45.5033 340.04 45.41C340.007 45.3167 339.953 45.23 339.88 45.15C339.807 45.0633 339.707 44.99 339.58 44.93C339.453 44.87 339.297 44.84 339.11 44.84C338.87 44.84 338.677 44.9067 338.53 45.04C338.383 45.1667 338.31 45.3133 338.31 45.48C338.31 45.7867 338.493 45.98 338.86 46.06L339.64 46.23C340.08 46.3233 340.41 46.4967 340.63 46.75C340.857 46.9967 340.97 47.3 340.97 47.66C340.97 47.8333 340.933 48.0067 340.86 48.18C340.787 48.3533 340.677 48.5133 340.53 48.66C340.39 48.8067 340.21 48.9233 339.99 49.01C339.77 49.1033 339.51 49.15 339.21 49.15C338.877 49.15 338.59 49.1033 338.35 49.01C338.117 48.9167 337.92 48.8 337.76 48.66C337.607 48.52 337.487 48.37 337.4 48.21C337.32 48.0433 337.27 47.89 337.25 47.75L338.1 47.45ZM342.321 49V44.19H343.251V49H342.321ZM342.111 42.37C342.111 42.1767 342.174 42.0167 342.301 41.89C342.434 41.7567 342.594 41.69 342.781 41.69C342.974 41.69 343.134 41.7567 343.261 41.89C343.394 42.0167 343.461 42.1767 343.461 42.37C343.461 42.5567 343.394 42.7167 343.261 42.85C343.134 42.9767 342.974 43.04 342.781 43.04C342.594 43.04 342.434 42.9767 342.301 42.85C342.174 42.7167 342.111 42.5567 342.111 42.37ZM346.222 44.19H347.262V45.04H346.222V47.54C346.222 47.76 346.272 47.9267 346.372 48.04C346.472 48.1467 346.645 48.2 346.892 48.2C346.952 48.2 347.019 48.1967 347.092 48.19C347.165 48.1833 347.222 48.1733 347.262 48.16V48.96C347.222 48.9733 347.145 48.99 347.032 49.01C346.919 49.0367 346.782 49.05 346.622 49.05C346.209 49.05 345.882 48.9333 345.642 48.7C345.402 48.46 345.282 48.12 345.282 47.68V45.04H344.362V44.19H344.622C344.882 44.19 345.069 44.12 345.182 43.98C345.302 43.84 345.362 43.6633 345.362 43.45V42.67H346.222V44.19Z" fill="#D8BA90"/>
<rect x="121" y="75" width="134" height="5" rx="2.5" fill="white"/>
</g>
<path d="M0 0.5H375V-0.5H0V0.5Z" fill="#3D4041" fill-opacity="0.3" mask="url(#path-1-inside-1_0_2074)"/>
</g>
<defs>
<filter id="filter0_b_0_2074" x="-20" y="-20" width="415" height="128" filterUnits="userSpaceOnUse" color-interpolation-filters="sRGB">
<feFlood flood-opacity="0" result="BackgroundImageFix"/>
<feGaussianBlur in="BackgroundImageFix" stdDeviation="10"/>
<feComposite in2="SourceAlpha" operator="in" result="effect1_backgroundBlur_0_2074"/>
<feBlend mode="normal" in="SourceGraphic" in2="effect1_backgroundBlur_0_2074" result="shape"/>
</filter>
<linearGradient id="paint0_linear_0_2074" x1="39.1133" y1="10.9636" x2="36.5989" y2="34.734" gradientUnits="userSpaceOnUse">
<stop stop-color="#CAB18C"/>
<stop offset="0.661458" stop-color="#BA9765"/>
<stop offset="1" stop-color="#826649"/>
</linearGradient>
<linearGradient id="paint1_linear_0_2074" x1="114.971" y1="11" x2="112.283" y2="34.6949" gradientUnits="userSpaceOnUse">
<stop stop-color="#CAB18C"/>
<stop offset="0.661458" stop-color="#BA9765"/>
<stop offset="1" stop-color="#826649"/>
</linearGradient>
<linearGradient id="paint2_linear_0_2074" x1="114.971" y1="11" x2="112.283" y2="34.6949" gradientUnits="userSpaceOnUse">
<stop stop-color="#CAB18C"/>
<stop offset="0.661458" stop-color="#BA9765"/>
<stop offset="1" stop-color="#826649"/>
</linearGradient>
<linearGradient id="paint3_linear_0_2074" x1="190.168" y1="13" x2="188.995" y2="32.931" gradientUnits="userSpaceOnUse">
<stop stop-color="#CAB18C"/>
<stop offset="0.661458" stop-color="#BA9765"/>
<stop offset="1" stop-color="#826649"/>
</linearGradient>
<linearGradient id="paint4_linear_0_2074" x1="190.168" y1="13" x2="188.995" y2="32.931" gradientUnits="userSpaceOnUse">
<stop stop-color="#CAB18C"/>
<stop offset="0.661458" stop-color="#BA9765"/>
<stop offset="1" stop-color="#826649"/>
</linearGradient>
<linearGradient id="paint5_linear_0_2074" x1="190.168" y1="13" x2="188.995" y2="32.931" gradientUnits="userSpaceOnUse">
<stop stop-color="#CAB18C"/>
<stop offset="0.661458" stop-color="#BA9765"/>
<stop offset="1" stop-color="#826649"/>
</linearGradient>
<linearGradient id="paint6_linear_0_2074" x1="265.143" y1="14.88" x2="263.551" y2="33.947" gradientUnits="userSpaceOnUse">
<stop stop-color="#CAB18C"/>
<stop offset="0.661458" stop-color="#BA9765"/>
<stop offset="1" stop-color="#826649"/>
</linearGradient>
<linearGradient id="paint7_linear_0_2074" x1="265.143" y1="14.88" x2="263.551" y2="33.947" gradientUnits="userSpaceOnUse">
<stop stop-color="#CAB18C"/>
<stop offset="0.661458" stop-color="#BA9765"/>
<stop offset="1" stop-color="#826649"/>
</linearGradient>
<linearGradient id="paint8_linear_0_2074" x1="340.239" y1="11.9982" x2="337.76" y2="35.7412" gradientUnits="userSpaceOnUse">
<stop stop-color="#CAB18C"/>
<stop offset="0.661458" stop-color="#BA9765"/>
<stop offset="1" stop-color="#826649"/>
</linearGradient>
<clipPath id="clip0_0_2074">
<path d="M0 0H375V88H0V0Z" fill="white"/>
</clipPath>
<clipPath id="clip1_0_2074">
<rect width="24" height="24" fill="white" transform="translate(25 11)"/>
</clipPath>
<clipPath id="clip2_0_2074">
<rect width="24" height="24" fill="white" transform="translate(101 11)"/>
</clipPath>
<clipPath id="clip3_0_2074">
<rect width="24" height="24" fill="white" transform="translate(251 12)"/>
</clipPath>
<clipPath id="clip4_0_2074">
<rect width="24" height="24" fill="white" transform="translate(326 12)"/>
</clipPath>
</defs>
</svg>
