<svg width="375" height="47" viewBox="0 0 375 47" fill="none" xmlns="http://www.w3.org/2000/svg">
<path d="M102 0H274C270.686 0 268 2.68629 268 6V6.71329C268 9.20832 268 10.4558 267.902 11.5071C266.889 22.3234 258.323 30.8887 247.507 31.9016C246.456 32 245.208 32 242.713 32H133.287C130.792 32 129.544 32 128.493 31.9016C117.677 30.8887 109.111 22.3234 108.098 11.5071C108 10.4558 108 9.20832 108 6.71329V6C108 2.68629 105.314 0 102 0Z" fill="black"/>
<path d="M40.4956 19.4453C42.9019 19.4453 44.9956 21.1562 44.9956 25.2188V25.2344C44.9956 29.0312 43.2847 31.2812 40.4487 31.2812C38.3784 31.2812 36.8316 30.0547 36.4722 28.3281L36.4566 28.2422H38.4409L38.4644 28.3203C38.7612 29.1094 39.4566 29.625 40.4487 29.625C42.2378 29.625 42.9956 27.875 43.0816 25.7188C43.0816 25.6328 43.0894 25.5469 43.0894 25.4609H42.9331C42.5191 26.3516 41.5347 27.1406 39.9878 27.1406C37.8237 27.1406 36.3081 25.5625 36.3081 23.4219V23.4062C36.3081 21.1172 38.0503 19.4453 40.4956 19.4453ZM40.4878 25.5938C41.7612 25.5938 42.7378 24.6719 42.7378 23.3984V23.3828C42.7378 22.0938 41.7612 21.0859 40.5112 21.0859C39.2691 21.0859 38.2769 22.0781 38.2769 23.3359V23.3516C38.2769 24.6562 39.2066 25.5938 40.4878 25.5938ZM48.2225 23.6953C47.5116 23.6953 46.9803 23.1484 46.9803 22.4609C46.9803 21.7656 47.5116 21.2266 48.2225 21.2266C48.9412 21.2266 49.4647 21.7656 49.4647 22.4609C49.4647 23.1484 48.9412 23.6953 48.2225 23.6953ZM48.2225 29.4922C47.5116 29.4922 46.9803 28.9531 46.9803 28.2578C46.9803 27.5625 47.5116 27.0234 48.2225 27.0234C48.9412 27.0234 49.4647 27.5625 49.4647 28.2578C49.4647 28.9531 48.9412 29.4922 48.2225 29.4922ZM56.9181 31V28.8359H51.4025V27.1875C52.8634 24.6484 54.465 22.0547 55.9963 19.7266H58.8478V27.1719H60.3634V28.8359H58.8478V31H56.9181ZM53.2775 27.2188H56.9494V21.3359H56.8322C55.6759 23.1016 54.3713 25.1875 53.2775 27.1016V27.2188ZM64.7153 31V21.7109H64.5825L61.7778 23.6953V21.7969L64.7231 19.7266H66.7309V31H64.7153Z" fill="white"/>
<path opacity="0.35" d="M324.528 23C324.528 21.0822 326.082 19.5275 328 19.5275H345C346.918 19.5275 348.472 21.0822 348.472 23V28C348.472 29.9178 346.918 31.4725 345 31.4725H328C326.082 31.4725 324.528 29.9178 324.528 28V23Z" stroke="white" stroke-width="1.05509"/>
<path opacity="0.4" d="M350 24V28.2203C350.849 27.8629 351.401 27.0314 351.401 26.1102C351.401 25.1889 350.849 24.3574 350 24Z" fill="white"/>
<path d="M326 23C326 21.8954 326.895 21 328 21H339C340.105 21 341 21.8954 341 23V28C341 29.1046 340.105 30 339 30H328C326.895 30 326 29.1046 326 28V23Z" fill="white"/>
<path fill-rule="evenodd" clip-rule="evenodd" d="M308.5 22.5875C310.967 22.5876 313.339 23.5551 315.127 25.2898C315.261 25.4237 315.477 25.4221 315.609 25.286L316.896 23.9605C316.963 23.8915 317.001 23.798 317 23.7008C316.999 23.6035 316.961 23.5105 316.893 23.4423C312.201 18.8526 304.799 18.8526 300.107 23.4423C300.039 23.5105 300.001 23.6034 300 23.7007C299.999 23.7979 300.037 23.8914 300.104 23.9605L301.391 25.286C301.523 25.4223 301.739 25.424 301.873 25.2898C303.661 23.5549 306.034 22.5875 308.5 22.5875ZM308.536 26.5894C309.891 26.5893 311.198 27.1035 312.203 28.032C312.338 28.1638 312.552 28.1609 312.685 28.0255L313.97 26.7C314.038 26.6304 314.075 26.5361 314.074 26.4381C314.073 26.3401 314.034 26.2466 313.965 26.1784C310.906 23.2739 306.169 23.2739 303.109 26.1784C303.04 26.2466 303.001 26.3401 303 26.4382C302.999 26.5362 303.037 26.6305 303.105 26.7L304.39 28.0255C304.522 28.1609 304.736 28.1638 304.872 28.032C305.876 27.1041 307.182 26.5899 308.536 26.5894ZM311.15 29.1767C311.152 29.275 311.114 29.3698 311.045 29.4386L308.822 31.7289C308.756 31.7962 308.668 31.834 308.575 31.834C308.482 31.834 308.393 31.7962 308.328 31.7289L306.105 29.4386C306.036 29.3697 305.998 29.2749 306 29.1766C306.002 29.0783 306.044 28.9853 306.115 28.9194C307.535 27.6935 309.615 27.6935 311.035 28.9194C311.106 28.9853 311.148 29.0784 311.15 29.1767Z" fill="white"/>
<path d="M284 23C284 22.4477 284.448 22 285 22H286C286.552 22 287 22.4477 287 23V31C287 31.5523 286.552 32 286 32H285C284.448 32 284 31.5523 284 31V23Z" fill="white"/>
<path d="M289 21C289 20.4477 289.448 20 290 20H291C291.552 20 292 20.4477 292 21V31C292 31.5523 291.552 32 291 32H290C289.448 32 289 31.5523 289 31V21Z" fill="white"/>
<path d="M279 26.5C279 25.9477 279.448 25.5 280 25.5H281C281.552 25.5 282 25.9477 282 26.5V31C282 31.5523 281.552 32 281 32H280C279.448 32 279 31.5523 279 31V26.5Z" fill="white"/>
<path d="M274 29C274 28.4477 274.448 28 275 28H276C276.552 28 277 28.4477 277 29V31C277 31.5523 276.552 32 276 32H275C274.448 32 274 31.5523 274 31V29Z" fill="white"/>
</svg>
