<svg width="44" height="49" viewBox="0 0 44 49" fill="none" xmlns="http://www.w3.org/2000/svg">
<g id="Panthers Logo">
<path id="Vector" d="M42.6993 4.83285C36.6303 1.67024 29.3043 0 21.5144 0C13.7245 0 6.39405 1.67024 0.325121 4.83285L0 5.00205V14.2513C0 16.7111 0.351131 23.2012 3.60234 30.2552C7.25237 38.1683 12.5237 43.4783 21.2326 48.0032L21.51 48.1463L21.7918 48.0032C30.5007 43.4783 35.772 38.1683 39.422 30.2552C42.6733 23.2012 43.0244 16.7154 43.0244 14.2513V5.00205L42.6993 4.83285ZM42.4175 14.2513C42.4175 16.672 42.0707 23.0537 38.8715 29.9993C34.9397 38.524 29.1569 43.487 21.5144 47.4609C13.8068 43.4566 8.06301 38.4676 4.15722 29.9993C0.953689 23.0537 0.606893 16.672 0.606893 14.2513V5.3708C7.11366 1.9826 14.5264 0.607361 21.5144 0.607361C28.5023 0.607361 35.9584 2.00429 42.4218 5.3708V14.2513H42.4175Z" fill="white"/>
<path id="Vector_2" d="M20.5703 18.5157C20.4619 18.5331 20.3318 18.5548 20.1758 18.5808C20.3275 18.5505 20.4576 18.5288 20.5703 18.5157Z" fill="#231F20"/>
<path id="Vector_3" d="M16.8366 19.7132L16.7065 19.4442L16.8366 19.7132Z" fill="#231F20"/>
<path id="Vector_4" d="M20.9803 18.4768C20.9803 18.4768 20.8936 18.4768 20.7158 18.498C20.8892 18.4768 20.9803 18.4768 20.9803 18.4768Z" fill="#231F20"/>
<path id="Vector_5" d="M30.032 22.6632C30.964 22.1382 32.2212 20.9712 32.2212 20.9712C32.8931 18.9843 33.474 16.3249 33.474 16.3249C33.474 16.0603 33.1575 15.6351 33.1575 15.6351C32.8411 15.4703 32.1085 15.3618 32.1085 15.3618C31.0247 15.5353 29.6115 16.5982 28.4888 17.4832C29.074 17.4832 30.0927 17.2967 30.0927 17.2967C29.889 17.8216 29.1607 19.1969 29.1607 19.1969C29.6289 19.2272 30.5305 19.0233 30.5305 19.0233C30.1794 20.1036 29.5075 21.4181 29.5075 21.4181L30.032 22.6718V22.6632Z" fill="#002D62"/>
<path id="Vector_6" d="M3.16504 15.7003C3.50317 22.3726 6.26453 34.4244 17.6568 42.2984C19.1827 41.4828 20.1971 40.1075 20.7996 39.036C22.0004 40.4893 22.1261 42.5153 22.1261 42.5153C23.4093 36.4981 17.7782 31.8561 17.7782 31.8561C17.7782 31.8561 21.84 33.8344 24.6447 37.0447C24.6447 37.0447 24.7271 36.5024 24.558 35.6217C24.363 34.5936 24.0552 33.8691 24.0552 33.8691C24.0552 33.8691 26.9813 36.2508 28.5635 39.7952C28.5982 39.7648 28.6329 39.7301 28.6719 39.6997C32.6904 35.5393 32.8031 29.3095 32.8031 29.3095C31.9274 25.674 30.3885 24.4116 30.3885 24.4116C30.6963 26.0732 30.8827 27.8996 30.8827 27.8996C29.903 30.06 28.156 31.5047 28.156 31.5047C26.5781 31.6782 25.3296 31.5221 23.1448 30.7802C21.2461 30.1381 19.8416 29.136 19.8416 29.136C19.8416 29.136 19.1177 29.0926 18.2897 29.1794C17.5874 29.2531 16.7378 29.444 16.7378 29.444C17.6785 27.7781 18.2377 26.0862 18.3374 25.3183C17.6958 24.6415 17.0022 23.9951 16.2956 23.4832C14.735 23.557 13.4952 23.6481 13.4952 23.6481L14.0198 21.518C14.0198 21.518 13.66 21.8173 13.2611 22.2164C12.832 22.6459 12.3551 23.1795 12.3551 23.1795C11.4231 23.557 10.1096 23.7652 10.1096 23.7652C9.43771 23.5917 8.79614 23.1535 8.79614 23.1535C10.3741 20.8152 12.9404 19.8824 12.9404 19.8824C12.4722 19.3271 12.5025 18.889 12.5025 18.889C13.1571 18.4551 13.7553 18.0994 14.2842 17.8087C14.1541 18.1514 14.1368 18.3944 14.1368 18.3944C14.1368 18.3944 15.0341 17.6699 15.5847 17.3402C16.1959 16.9714 16.7941 16.6591 16.7941 16.6591C17.1886 15.3793 17.8692 14.3424 18.0469 14.1993C18.0469 14.1993 18.4067 14.1429 18.5888 14.1646C18.6235 14.581 19.1003 15.2491 19.2954 15.5051C18.3027 15.8305 17.4444 16.4725 17.4444 16.4725C17.4444 16.4725 19.6205 15.8912 21.5496 15.8261C24.1592 15.7394 25.7718 16.3294 25.7718 16.3294C25.3773 16.8977 24.8485 17.492 24.8485 17.492C29.1704 16.0257 29.6212 14.9064 31.9621 14.4032C32.8161 14.542 33.5877 14.8196 33.5877 14.8196C34.1426 15.4053 34.2726 16.004 34.2726 16.004C33.9519 18.5028 32.9462 21.3054 32.9462 21.3054C32.1572 22.2685 30.8004 23.1448 30.8004 23.1448C32.1572 22.9713 34.1729 22.3552 34.1729 22.3552C35.4257 23.2706 37.0687 25.2576 37.7493 26.1122C39.1668 22.173 39.726 18.4725 39.8691 15.7046C39.2969 15.4183 32.2092 11.952 21.5236 11.952C10.8379 11.952 3.74592 15.414 3.17804 15.7046L3.16504 15.7003ZM11.7352 31.6826C10.6862 30.8496 10.335 29.6392 10.335 29.6392C10.3654 28.7933 10.7729 28.2683 10.7729 28.2683C12.6716 29.6132 15.589 30.8106 15.589 30.8106C13.3132 31.0275 11.7352 31.6869 11.7352 31.6869V31.6826ZM11.3191 25.0797C11.4751 24.9582 11.6832 24.7934 11.8219 24.6892C11.8219 24.6892 12.6499 24.5721 13.5516 24.5114C14.2538 24.455 14.8998 24.4853 14.8998 24.4853L15.4763 25.1621C15.1729 25.1968 14.6917 25.2706 14.1758 25.4398C14.1758 25.4398 15.3246 25.7565 16.1179 26.2988C16.1049 26.4029 16.0919 26.507 16.0745 26.6111C15.8231 26.5851 15.1035 26.533 14.3709 26.6415C14.3709 26.6415 15.1729 27.0146 15.8318 27.5438C15.7928 27.661 15.7494 27.7738 15.7104 27.8822C15.4503 27.8258 14.8737 27.726 14.2018 27.7477C14.2018 27.7477 14.8131 28.1252 15.3679 28.6414C15.2249 28.9147 15.1208 29.0839 15.1208 29.0839C13.4302 28.5764 11.3234 27.6133 10.7859 27.3616L10.7599 25.6914C10.9419 25.4658 11.0416 25.327 11.3234 25.0754L11.3191 25.0797ZM8.8655 24.4203C8.98254 24.6068 9.12993 24.8237 9.299 25.045C9.48106 25.2836 9.68481 25.4962 9.91022 25.7087L10.5171 27.418C10.0836 27.8302 9.51574 28.7325 9.51574 28.7325C8.81348 27.5352 8.26294 25.9864 8.26294 25.9864L8.8655 24.4159V24.4203Z" fill="#002D62"/>
<path id="Vector_7" d="M21.5142 44.6193C22.5329 44.0901 23.4996 43.5261 24.4142 42.9404C23.4996 43.5261 22.5372 44.0901 21.5142 44.6193Z" fill="#002D62"/>
<path id="Vector_8" d="M22.23 18.967C22.0826 18.9063 21.9352 18.8412 21.7878 18.7848C21.3543 18.6113 20.9815 18.4768 20.9815 18.4768C20.9815 18.4768 20.8905 18.4768 20.7171 18.4985C20.6737 18.5028 20.626 18.5115 20.5697 18.5159C20.4613 18.5332 20.3313 18.5549 20.1752 18.5809C19.4903 18.7154 18.3719 19.0191 16.8373 19.7132L16.7073 19.4442L16.5295 19.0842L14.7695 21.5049C15.3678 21.6177 15.9833 21.6524 16.5555 21.6524C17.804 21.6481 18.814 21.4529 18.814 21.4529C19.4686 20.9019 20.0495 20.3032 20.444 19.8651C20.5784 19.7219 20.6867 19.5917 20.7778 19.492C20.8948 19.3575 20.9685 19.2707 20.9902 19.2447C21.3977 19.1276 21.7185 19.0712 22.23 18.967ZM18.3762 20.8238C17.3835 21.3054 16.5382 20.9106 16.5382 20.9106C16.5382 20.9106 16.6639 20.7023 16.7723 20.5158C16.9153 20.6676 17.3185 20.8282 17.6176 20.7067C17.9124 20.5852 18.0294 20.2772 18.0684 20.1297C18.3979 20.069 18.762 20.0212 19.1348 19.9909C19.1348 19.9909 18.9874 20.5245 18.3762 20.8238Z" fill="#002D62"/>
<path id="Vector_9" d="M0.606445 5.37086V14.2513C0.606445 16.6721 0.953241 23.0537 4.15244 29.9993C8.05823 38.4677 13.802 43.4567 21.5096 47.461C29.1521 43.4871 34.9393 38.5241 38.8667 29.9993C42.0703 23.0537 42.4127 16.6721 42.4127 14.2513V5.37086C35.9536 2.00435 28.5625 0.607422 21.5139 0.607422C14.4653 0.607422 7.11321 1.98266 0.606445 5.37086ZM41.2856 14.2513C41.2856 16.5984 40.9518 22.7848 37.8437 29.5221C34.224 37.3701 28.7316 42.4285 21.5139 46.1812C14.3266 42.4459 8.81684 37.3961 5.18415 29.5221C2.07599 22.7848 1.7422 16.5984 1.7422 14.2513V6.06065C7.45567 3.08459 14.9378 1.74405 21.5139 1.74405C28.09 1.74405 35.5592 3.08025 41.2856 6.06065V14.2513Z" fill="#002D62"/>
<path id="Vector_10" d="M20.4427 19.8606C20.0438 20.2944 19.4673 20.8931 18.8127 21.4484C18.8127 21.4484 17.807 21.6436 16.5542 21.648C17.8027 21.6436 18.8127 21.4484 18.8127 21.4484C19.4673 20.8974 20.0482 20.2988 20.4427 19.8606Z" fill="#CFAB7A"/>
<path id="Vector_11" d="M1.74268 6.0605V14.2512C1.74268 16.5982 2.07647 22.7846 5.18463 29.522C8.81732 37.396 14.3227 42.4457 21.5144 46.181C28.7321 42.4284 34.2245 37.3699 37.8442 29.522C40.9523 22.7846 41.2861 16.5982 41.2861 14.2512V6.0605C35.5596 3.08009 28.0688 1.7439 21.5144 1.7439C14.9599 1.7439 7.45614 3.08443 1.74268 6.0605ZM37.7401 26.1121C37.0595 25.2574 35.4166 23.2705 34.1638 22.3551C34.1638 22.3551 32.1524 22.9711 30.7912 23.1447C30.7912 23.1447 32.148 22.2683 32.937 21.3052C32.937 21.3052 33.9427 18.4984 34.2635 16.0039C34.2635 16.0039 34.1334 15.4052 33.5786 14.8195C33.5786 14.8195 32.8069 14.5419 31.953 14.403C29.6121 14.9063 29.1612 16.0255 24.8393 17.4919C24.8393 17.4919 25.3725 16.8932 25.7626 16.3292C25.7626 16.3292 24.1544 15.7392 21.5404 15.826C19.6113 15.8911 17.4352 16.4724 17.4352 16.4724C17.4352 16.4724 18.2935 15.826 19.2862 15.505C19.0912 15.249 18.6143 14.5852 18.5796 14.1644C18.3932 14.1427 18.0378 14.1991 18.0378 14.1991C17.8644 14.3466 17.1838 15.3835 16.785 16.6589C16.785 16.6589 16.1867 16.9756 15.5755 17.34C15.0293 17.6698 14.1276 18.3943 14.1276 18.3943C14.1276 18.3943 14.145 18.1513 14.275 17.8086C13.7462 18.0992 13.1479 18.455 12.4934 18.8888C12.4934 18.8888 12.463 19.327 12.9312 19.8823C12.9312 19.8823 10.3649 20.815 8.78697 23.1534C8.78697 23.1534 9.42854 23.5915 10.1005 23.7651C10.1005 23.7651 11.414 23.5612 12.346 23.1794C12.346 23.1794 12.8185 22.6458 13.252 22.2163C13.6508 21.8172 14.0106 21.5178 14.0106 21.5178L13.4861 23.6479C13.4861 23.6479 14.7259 23.5568 16.2864 23.4831C16.993 23.995 17.6866 24.6371 18.3282 25.3182C18.2285 26.086 17.6693 27.778 16.7286 29.4439C16.7286 29.4439 17.5783 29.2573 18.2805 29.1792C19.1128 29.0925 19.8324 29.1359 19.8324 29.1359C19.8324 29.1359 21.2413 30.138 23.1357 30.7801C25.3205 31.5219 26.5733 31.6781 28.1469 31.5046C28.1469 31.5046 29.8982 30.0599 30.8735 27.8994C30.8735 27.8994 30.6828 26.073 30.3794 24.4115C30.3794 24.4115 31.9183 25.6739 32.7939 29.3094C32.7939 29.3094 32.6812 35.5435 28.6627 39.6996C28.628 39.73 28.5934 39.7647 28.5543 39.795C27.3102 40.9013 25.9317 41.9555 24.4101 42.9316C23.4955 43.5216 22.5331 44.0813 21.5101 44.6105C21.5101 44.6105 22.0346 43.5086 22.1213 42.5151C22.1213 42.5151 21.9956 40.4848 20.7948 39.0315C20.1922 40.1031 19.1735 41.474 17.6519 42.2939C6.26836 34.4286 3.507 22.3768 3.16454 15.7002C3.73675 15.4138 10.8244 11.9476 21.5101 11.9476C32.1957 11.9476 39.2877 15.4095 39.8556 15.7002C39.7169 18.4723 39.1576 22.1686 37.7358 26.1077L37.7401 26.1121ZM29.1569 19.1882C29.1569 19.1882 29.8852 17.8173 30.0889 17.288C30.0889 17.288 29.0659 17.4745 28.485 17.4745C29.6077 16.5939 31.0209 15.531 32.1047 15.3531C32.1047 15.3531 32.8373 15.4616 33.1537 15.6264C33.1537 15.6264 33.4702 16.0516 33.4702 16.3162C33.4702 16.3162 32.8893 18.9799 32.2174 20.9625C32.2174 20.9625 30.9646 22.1295 30.0282 22.6545L29.5037 21.4007C29.5037 21.4007 30.1756 20.0862 30.5268 19.006C30.5268 19.006 29.6207 19.2099 29.1569 19.1795V19.1882ZM20.9855 19.2446C20.9985 19.5092 20.9855 19.7131 20.9855 19.7131C20.5477 20.4723 19.7154 21.379 19.1822 21.8736C18.0681 22.1382 16.98 22.1512 16.0523 22.1078L14.7692 21.5048L16.5292 19.084C16.5292 19.084 18.9438 18.1209 20.9812 18.4767C20.9812 18.4767 21.354 18.6112 21.7875 18.7847C21.9305 18.8411 22.0823 18.9018 22.2297 18.9669C21.7181 19.071 21.3973 19.1274 20.9899 19.2446C20.9682 19.2663 20.8945 19.3574 20.7774 19.4918C20.8945 19.3574 20.9682 19.2706 20.9899 19.2446H20.9855ZM23.2484 21.0493C23.3351 20.6935 23.2744 19.5613 23.2744 19.5613C23.2744 19.5613 23.9159 19.7738 24.9087 20.5634C24.9087 20.5634 24.7786 21.2922 24.5792 22.0297L21.1286 23.6132C21.1286 23.6132 22.2773 22.3725 23.244 21.0493H23.2484ZM39.8989 6.90212V14.2121C34.3849 11.7003 27.553 10.5636 21.5144 10.5636C15.4758 10.5636 8.63525 11.7046 3.12986 14.2121V6.90212C3.12986 6.90212 10.3649 3.13215 21.5144 3.13215C32.6639 3.13215 39.8989 6.90212 39.8989 6.90212Z" fill="#CFAB7A"/>
<path id="Vector_12" d="M17.6175 20.7067C17.3184 20.8281 16.9152 20.6676 16.7722 20.5158C16.6638 20.7023 16.5381 20.9106 16.5381 20.9106C16.5381 20.9106 17.3834 21.3053 18.3761 20.8238C18.9873 20.5288 19.1347 19.9908 19.1347 19.9908C18.7619 20.0212 18.3934 20.0646 18.0683 20.1297C18.0293 20.2772 17.9166 20.5852 17.6175 20.7067Z" fill="#E31937"/>
<path id="Vector_13" d="M22.6147 5.43159C22.2593 5.42292 21.9038 5.41858 21.5483 5.41858V6.35999C21.9038 6.35999 22.2593 6.36433 22.6147 6.373V5.43159Z" fill="#E31937"/>
<path id="Vector_14" d="M30.0854 9.06699C30.4366 9.13206 30.7877 9.20147 31.1345 9.27522V6.42931C30.7834 6.35556 30.4322 6.28614 30.0854 6.22107V9.06699Z" fill="#E31937"/>
<path id="Vector_15" d="M3.12939 14.2122C8.63478 11.7047 15.4537 10.5637 21.5139 10.5637C27.5742 10.5637 34.3844 11.7003 39.8985 14.2122V6.90218C39.8985 6.90218 32.6634 3.1322 21.5139 3.1322C10.3644 3.1322 3.12939 6.90218 3.12939 6.90218V14.2122ZM34.328 7.08872C34.4754 6.85446 34.6228 6.62453 34.7702 6.3946C35.4508 6.5985 36.1314 6.81541 36.8033 7.05402C36.9464 7.37939 37.0937 7.70476 37.2368 8.03447V11.9823C36.9247 11.8695 36.6126 11.7611 36.3004 11.6569V9.75243C35.958 9.63964 35.6155 9.52684 35.2731 9.41839V11.3229C34.9566 11.2275 34.6445 11.132 34.328 11.0409V7.09306V7.08872ZM29.1218 5.08877C29.9671 5.2276 30.8124 5.39245 31.6534 5.58334C31.8008 5.89135 31.9525 6.19937 32.0999 6.51173V9.6353C31.9525 9.87391 31.8008 10.1168 31.6534 10.3598C30.8124 10.1732 29.9714 10.0084 29.1218 9.86523V5.09311V5.08877ZM25.8792 4.66796C26.2043 4.69833 26.5295 4.73303 26.8502 4.77208V9.5442C26.5251 9.50515 26.2 9.47478 25.8792 9.44008V4.66796ZM20.5732 4.47273C21.4272 4.45538 22.2855 4.45972 23.1395 4.49009C23.2913 4.76774 23.443 5.04973 23.5947 5.33172V6.55078C23.443 6.81975 23.2913 7.08872 23.1395 7.3577C23.0312 7.3577 22.9271 7.34902 22.8187 7.34902C23.0788 7.99109 23.3346 8.63749 23.5947 9.2839C23.2479 9.26654 22.9054 9.25787 22.5586 9.24919C22.2985 8.60712 22.0428 7.9694 21.7827 7.33167C21.7047 7.33167 21.631 7.33167 21.5529 7.33167V9.23618C21.2278 9.23618 20.9027 9.23618 20.5776 9.24485C20.5776 7.6527 20.5776 6.06055 20.5776 4.47273H20.5732ZM15.2803 5.70915C15.432 5.41414 15.5794 5.11914 15.7311 4.82414C16.429 4.73737 17.1313 4.66362 17.8335 4.60722C17.9853 4.87186 18.137 5.13215 18.2887 5.39679V8.52036C18.137 8.80669 17.9853 9.09301 17.8335 9.37934C17.1313 9.43574 16.429 9.50515 15.7311 9.59626C15.5794 9.3403 15.432 9.08434 15.2803 8.83272V5.70915ZM10.4901 5.79157C10.8109 5.71349 11.1274 5.63973 11.4482 5.56598V9.375C11.9684 9.25787 12.4886 9.15375 13.0131 9.05397V10.0171C12.1678 10.1732 11.3268 10.3555 10.4901 10.5594V5.78724V5.79157ZM5.79539 7.2102C6.61036 6.91519 7.434 6.64622 8.26631 6.39893V7.36204C7.75479 7.51388 7.24326 7.67873 6.73174 7.84792V8.78933C7.09587 8.66786 7.46001 8.55073 7.82415 8.43793V9.40103C7.46001 9.51383 7.09154 9.63096 6.73174 9.75243V11.6569C6.41962 11.7611 6.10751 11.8695 5.79539 11.9823C5.79539 10.3902 5.79539 8.79801 5.79539 7.2102Z" fill="#E31937"/>
<path id="Vector_16" d="M36.3008 7.83942C35.9584 7.72662 35.6159 7.61383 35.2734 7.50537V8.44678C35.6159 8.55524 35.9584 8.66369 36.3008 8.78083V7.83942Z" fill="#E31937"/>
<path id="Vector_17" d="M17.3101 5.60938C16.9546 5.63974 16.5992 5.67879 16.248 5.71783V8.56375C16.6035 8.52471 16.9546 8.48566 17.3101 8.45529V5.60938Z" fill="#E31937"/>
<path id="Vector_18" d="M13.0088 9.05415C12.4843 9.14959 11.9641 9.25805 11.4439 9.37518V5.56616C11.1231 5.63557 10.8066 5.71366 10.4858 5.79175V10.5639C11.3225 10.36 12.1635 10.1778 13.0088 10.0216V9.05849V9.05415Z" fill="white"/>
<path id="Vector_19" d="M21.5495 7.32733C21.6276 7.32733 21.7012 7.32733 21.7793 7.32733C22.0394 7.96506 22.2951 8.60279 22.5552 9.24486C22.902 9.25354 23.2488 9.26221 23.5913 9.27956C23.3312 8.63316 23.0754 7.98675 22.8153 7.34469C22.9237 7.34469 23.0277 7.34903 23.1361 7.35336C23.2878 7.08439 23.4396 6.81542 23.5913 6.54644V5.32738C23.4396 5.04539 23.2878 4.76774 23.1361 4.48575C22.2821 4.45539 21.4238 4.45105 20.5698 4.4684C20.5698 6.06055 20.5698 7.65271 20.5698 9.24052C20.8949 9.23184 21.2201 9.23184 21.5452 9.23184V7.32733H21.5495ZM21.5495 5.42283C21.905 5.42283 22.2605 5.42716 22.6159 5.43584V6.37725C22.2605 6.36857 21.905 6.36423 21.5495 6.36423V5.42283Z" fill="white"/>
<path id="Vector_20" d="M6.72834 9.74815C7.09248 9.62668 7.45661 9.50955 7.82075 9.39675V8.43365C7.45661 8.54645 7.08814 8.66358 6.72834 8.78505V7.84364C7.23553 7.67445 7.74706 7.50959 8.26291 7.35775V6.39465C7.43494 6.64194 6.6113 6.91091 5.79199 7.20591C5.79199 8.79807 5.79199 10.3902 5.79199 11.978C6.10411 11.8652 6.41623 11.7568 6.72834 11.6527V9.74815Z" fill="white"/>
<path id="Vector_21" d="M35.2741 9.41393C35.6166 9.52238 35.959 9.63084 36.3015 9.74797V11.6525C36.6136 11.7566 36.9257 11.8651 37.2379 11.9779V8.03001C37.0948 7.70464 36.9474 7.37493 36.8044 7.04956C36.1281 6.81529 35.4519 6.59404 34.7713 6.39014C34.6239 6.62007 34.4765 6.85433 34.3291 7.08426V11.0321C34.6456 11.1232 34.962 11.2187 35.2741 11.3141V9.40959V9.41393ZM35.2741 7.50942C35.6166 7.61787 35.959 7.72633 36.3015 7.84346V8.78487C35.959 8.67208 35.6166 8.55928 35.2741 8.45082V7.50942Z" fill="white"/>
<path id="Vector_22" d="M17.8292 9.37515C17.9809 9.08882 18.1326 8.80249 18.2843 8.51616V5.3926C18.1326 5.12796 17.9809 4.86332 17.8292 4.60303C17.1269 4.65943 16.4246 4.72884 15.7267 4.81994C15.575 5.11495 15.4276 5.40995 15.2759 5.70495V8.82852C15.4276 9.08448 15.575 9.3361 15.7267 9.59206C16.4246 9.5053 17.1269 9.43154 17.8292 9.37515ZM16.2469 5.71797C16.6024 5.67892 16.9535 5.63988 17.309 5.60951V8.45543C16.9535 8.4858 16.598 8.52484 16.2469 8.56389V5.71797Z" fill="white"/>
<path id="Vector_23" d="M26.847 4.76342C26.5219 4.72438 26.1968 4.68967 25.876 4.6593V9.43142C26.2011 9.46179 26.5262 9.4965 26.847 9.53554V4.76342Z" fill="white"/>
<path id="Vector_24" d="M32.0953 9.631V6.50743C31.9479 6.19941 31.7962 5.88706 31.6488 5.57904C30.8078 5.39249 29.9668 5.22764 29.1172 5.08447V9.85659C29.9625 9.99542 30.8078 10.1603 31.6488 10.3512C31.7962 10.1082 31.9479 9.86961 32.0953 9.62666V9.631ZM31.1373 9.2796C30.7861 9.20585 30.435 9.13644 30.0882 9.07136V6.22544C30.4393 6.29052 30.7905 6.35993 31.1373 6.43368V9.2796Z" fill="white"/>
<path id="Vector_25" d="M9.51989 28.7368C9.51989 28.7368 10.0878 27.8388 10.5213 27.4223L9.91437 25.713C9.68462 25.5005 9.48521 25.2879 9.30314 25.0493C9.13408 24.828 8.98669 24.6111 8.86965 24.4246L8.26709 25.995C8.26709 25.995 8.82196 27.5438 9.51989 28.7412V28.7368Z" fill="white"/>
<path id="Vector_26" d="M10.334 29.6392C10.334 29.6392 10.6851 30.8495 11.7342 31.6825C11.7342 31.6825 13.3121 31.0274 15.5879 30.8062C15.5879 30.8062 12.6705 29.6088 10.7718 28.2639C10.7718 28.2639 10.3643 28.7888 10.334 29.6348V29.6392Z" fill="white"/>
<path id="Vector_27" d="M18.814 21.4485C18.814 21.4485 17.8083 21.6438 16.5555 21.6481C15.9877 21.6481 15.3678 21.6134 14.7695 21.5006L16.0527 22.1036C16.9804 22.147 18.0641 22.134 19.1825 21.8694C19.7157 21.3748 20.548 20.4681 20.9859 19.7089C20.9859 19.7089 20.9989 19.505 20.9859 19.2404C20.9642 19.262 20.8905 19.3532 20.7734 19.4876C20.6867 19.5874 20.574 19.7132 20.4396 19.8607C20.0408 20.2946 19.4643 20.8932 18.8097 21.4485H18.814Z" fill="white"/>
<path id="Vector_28" d="M15.1192 29.0883C15.1192 29.0883 15.2232 28.9235 15.3663 28.6458C14.8114 28.1296 14.2002 27.7521 14.2002 27.7521C14.8721 27.7348 15.4487 27.8346 15.7088 27.8866C15.7521 27.7782 15.7911 27.6654 15.8301 27.5482C15.1669 27.019 14.3693 26.6459 14.3693 26.6459C15.1019 26.5374 15.8215 26.5938 16.0729 26.6155C16.0902 26.5114 16.1032 26.4073 16.1162 26.3031C15.3273 25.7609 14.1742 25.4442 14.1742 25.4442C14.69 25.275 15.1712 25.2012 15.4747 25.1665L14.8981 24.4897C14.8981 24.4897 14.2479 24.4594 13.5499 24.5158C12.6483 24.5765 11.8203 24.6936 11.8203 24.6936C11.6816 24.7978 11.4735 24.9626 11.3175 25.0841C11.0357 25.3357 10.936 25.4745 10.7539 25.7001L10.7799 27.3704C11.3175 27.622 13.4242 28.5851 15.1149 29.0927L15.1192 29.0883Z" fill="white"/>
<path id="Vector_29" d="M24.9139 20.5635C23.9212 19.774 23.2797 19.5614 23.2797 19.5614C23.2797 19.5614 23.3403 20.6894 23.2536 21.0494C22.2913 22.3726 21.1382 23.6134 21.1382 23.6134L24.5888 22.0299C24.7882 21.2924 24.9183 20.5635 24.9183 20.5635H24.9139Z" fill="#002D62"/>
<path id="Vector_30" d="M24.05 33.8733C24.05 33.8733 24.3577 34.5978 24.5528 35.626C24.7219 36.5067 24.6395 37.0489 24.6395 37.0489C21.8391 33.8386 17.7729 31.8604 17.7729 31.8604C17.7729 31.8604 23.4041 36.5023 22.1209 42.5195C22.0342 43.513 21.5097 44.6149 21.5097 44.6149C22.5284 44.0856 23.4951 43.5217 24.4098 42.936C25.9313 41.9556 27.3098 40.9013 28.554 39.7994C26.9761 36.255 24.0456 33.8733 24.0456 33.8733H24.05Z" fill="white"/>
<path id="Vector_31" d="M16.8361 19.7132C18.3707 19.0234 19.4891 18.7154 20.174 18.5809C20.3257 18.5505 20.4558 18.5289 20.5685 18.5158C20.6249 18.5072 20.6725 18.5028 20.7159 18.4985C20.8893 18.4768 20.9803 18.4768 20.9803 18.4768C18.9429 18.1167 16.5283 19.0842 16.5283 19.0842L16.7061 19.4442L16.8361 19.7132Z" fill="white"/>
</g>
</svg>
