<svg width="49" height="29" viewBox="0 0 49 29" fill="none" xmlns="http://www.w3.org/2000/svg">
<g id="Ducks Logo" clip-path="url(#clip0_6691_1787)">
<path id="Vector" d="M29.8275 2.31348C22.6494 2.31348 14.8313 5.29552 14.8313 5.29552C14.8313 5.29552 22.8769 4.86303 22.8769 8.46452C22.8769 11.8243 17.1923 14.2888 17.1923 14.2888C17.1923 14.2888 20.6429 15.1538 20.6429 17.2917C20.6429 22.1472 9.45703 25.1632 9.45703 25.1632C32.9289 26.3813 46.3311 12.9423 46.3311 10.457C46.3311 8.14913 39.802 2.31348 29.8275 2.31348ZM12.3134 24.742C15.7305 23.4729 21.1031 20.9045 21.1031 17.2917C21.1031 15.6656 19.562 14.7006 18.4388 14.2114C20.1615 13.2747 23.3353 11.1822 23.3353 8.46452C23.3353 5.12555 17.6436 4.88003 17.6436 4.88003C20.53 4.00941 25.326 2.80639 29.8275 2.80639C39.5675 2.80639 45.8692 8.48907 45.8692 10.4551C45.8692 12.6269 33.5954 24.742 12.3134 24.742Z" fill="white"/>
<path id="Vector_2" d="M25.8955 6.4419C25.8955 6.4419 32.1849 7.96031 34.9972 9.97351L22.7358 13.3729L34.3607 12.9669C31.7705 14.9933 22.3232 19.8488 22.3232 19.8488C22.3232 19.8488 33.934 17.998 41.2743 10.8158C34.7416 4.53257 25.8955 6.4419 25.8955 6.4419ZM40.5443 10.829C35.967 15.0915 29.8416 17.3823 25.9678 18.4815C25.9678 18.4815 33.3345 14.6779 35.84 12.4211L26.8829 12.7346L36.1081 10.1775C33.4544 8.01507 28.5862 6.68175 28.5862 6.68175C31.5378 6.61376 36.466 7.17844 40.5443 10.829Z" fill="white"/>
<path id="Vector_3" d="M29.5966 0C16.6775 0 6.39266 7.57502 6.39266 7.57502C6.39266 7.57502 19.0702 6.48154 19.0702 9.29361C19.0702 11.7582 9.03396 15.7676 9.03396 15.7676C9.03396 15.7676 16.949 15.9886 16.949 18.0377C16.949 21.4937 0.5 26.1453 0.5 26.1453C0.5 26.1453 6.26395 28.9819 15.2669 28.9819C31.3898 28.9819 48.5 19.1897 48.5 11.558C48.5 4.53066 38.8746 0 29.5966 0ZM15.2687 28.3624C9.24555 28.3624 4.66119 27.0593 2.36724 26.2378C7.44707 24.7062 17.5291 21.2595 17.5291 18.0358C17.5291 16.2851 14.3571 15.5901 11.6559 15.3143C14.9443 13.8337 19.6503 11.3559 19.6503 9.29172C19.6503 5.98296 8.70248 6.80827 8.70248 6.80827C12.2624 4.67797 20.2692 0.61756 29.5966 0.61756C38.4109 0.61756 47.9252 4.79884 47.9252 11.5561C47.9252 18.3134 31.4691 28.3624 15.2687 28.3624Z" fill="#A1ABB2"/>
<path id="Vector_4" d="M29.8275 2.8064C25.326 2.8064 20.5301 4.00941 17.6437 4.88004C17.6437 4.88004 23.3353 5.12555 23.3353 8.46453C23.3353 11.1822 20.1615 13.2747 18.4389 14.2114C19.5621 14.7006 21.1031 15.6656 21.1031 17.2917C21.1031 20.9045 15.7288 23.4748 12.3135 24.742C33.5955 24.742 45.8692 12.6269 45.8692 10.4551C45.8692 8.48908 39.5675 2.8064 29.8275 2.8064ZM22.3232 19.8488C22.3232 19.8488 31.7706 14.9933 34.3607 12.9669L22.7358 13.3729L34.9972 9.97349C32.1867 7.95839 25.8955 6.44188 25.8955 6.44188C25.8955 6.44188 34.7416 4.53254 41.2743 10.8158C33.934 17.998 22.3232 19.8488 22.3232 19.8488Z" fill="#B79257"/>
<path id="Vector_5" d="M12.2484 26.1018L10.3477 26.6419C10.3477 26.6419 12.0474 26.844 14.7275 26.844C33.9483 26.844 46.7104 14.3191 46.7104 12.3247C46.7104 12.1057 46.6434 11.9187 46.6434 11.9187C39.8304 20.6004 26.303 26.5853 12.2484 26.0999V26.1018Z" fill="#F26924"/>
<path id="Vector_6" d="M28.5861 6.68167C28.5861 6.68167 33.4526 8.015 36.108 10.1774L26.8829 12.7345L35.84 12.421C33.3362 14.6778 25.9678 18.4814 25.9678 18.4814C29.8433 17.3823 35.967 15.0914 40.5443 10.829C36.466 7.17836 31.5378 6.61179 28.5861 6.68167Z" fill="#231F20"/>
<path id="Vector_7" d="M29.5963 0.617554C20.2689 0.617554 12.2622 4.67796 8.70047 6.80826C8.70047 6.80826 19.6483 5.98296 19.6483 9.29172C19.6483 11.3559 14.9422 13.8356 11.6539 15.3143C14.3551 15.5901 17.5271 16.2851 17.5271 18.0358C17.5271 21.2614 7.44506 24.7062 2.36523 26.2378C4.65918 27.0593 9.24354 28.3624 15.2667 28.3624C31.4671 28.3624 47.9232 18.5853 47.9232 11.5561C47.9232 4.52688 38.4089 0.617554 29.5963 0.617554ZM46.7101 12.3247C46.7101 14.3191 33.9479 26.844 14.7271 26.844C12.047 26.844 10.3473 26.6419 10.3473 26.6419L12.2481 26.1018C26.3026 26.5853 39.8318 20.6023 46.6431 11.9206C46.6431 11.9206 46.7101 12.1057 46.7101 12.3266V12.3247ZM9.45512 25.1632C9.45512 25.1632 20.641 22.1472 20.641 17.2917C20.641 15.1538 17.1903 14.2889 17.1903 14.2889C17.1903 14.2889 22.875 11.8243 22.875 8.46453C22.875 4.86115 14.8294 5.29552 14.8294 5.29552C14.8294 5.29552 22.6493 2.31348 29.8255 2.31348C39.8001 2.31348 46.3292 8.14725 46.3292 10.457C46.3292 12.9442 32.9253 26.3832 9.45512 25.1632Z" fill="#231F20"/>
<path id="Vector_8" d="M43.0924 22.2246C43.0924 21.692 42.6886 21.2595 42.1932 21.2595C41.6977 21.2595 41.2939 21.692 41.2939 22.2246C41.2939 22.7572 41.6977 23.1877 42.1932 23.1877C42.6886 23.1877 43.0924 22.7572 43.0924 22.2246ZM41.4861 22.2246C41.4861 21.8053 41.8018 21.4673 42.1932 21.4673C42.5846 21.4673 42.8985 21.8053 42.8985 22.2246C42.8985 22.6438 42.5811 22.9819 42.1932 22.9819C41.8053 22.9819 41.4861 22.6419 41.4861 22.2246Z" fill="#A1ABB2"/>
<path id="Vector_9" d="M42.5611 22.7741L42.3583 22.3077C42.4764 22.2623 42.5611 22.1415 42.5611 21.9998C42.5611 21.8185 42.4235 21.6731 42.256 21.6731H41.8223V22.7741H42.0145V22.3284H42.152L42.3477 22.7741H42.5611ZM42.256 22.1207H42.0145V21.8808H42.256C42.3195 21.8808 42.3689 21.9337 42.3689 22.0017C42.3689 22.0697 42.3195 22.1226 42.256 22.1226V22.1207Z" fill="#A1ABB2"/>
</g>
<defs>
<clipPath id="clip0_6691_1787">
<rect width="48" height="28.9819" fill="white" transform="translate(0.5)"/>
</clipPath>
</defs>
</svg>
