<svg width="300" height="300" viewBox="0 0 300 300" fill="none" xmlns="http://www.w3.org/2000/svg">
<rect width="300" height="300" rx="150" fill="#026CDF"/>
<path d="M97.096 85.6125H127.386L134.454 49.4772L179.384 33.5996L169.287 85.6125H206.645L200.082 119.01H162.724L147.579 195.113C146.57 198.946 145.56 205.516 145.56 212.086C145.56 222.488 152.123 229.058 161.715 229.058C169.287 229.058 176.86 227.416 181.908 225.226L174.84 260.266C167.773 261.909 159.695 264.099 152.123 264.099C123.852 264.099 103.659 252.054 103.659 218.656C103.659 204.968 106.183 191.828 109.212 178.141L120.823 119.01H90.5332L97.096 85.6125Z" fill="white"/>
</svg>
