<svg width="24" height="24" viewBox="0 0 24 24" fill="none" xmlns="http://www.w3.org/2000/svg">
<path fill-rule="evenodd" clip-rule="evenodd" d="M2 12C2 6.48 6.48 2 12 2C17.52 2 22 6.48 22 12C22 17.52 17.52 22 12 22C6.48 22 2 17.52 2 12ZM6.3 17.7C6.5 17.9 6.73333 18 7 18H17C17.2667 18 17.5 17.9 17.7 17.7C17.9 17.5 18 17.2667 18 17V8.28333C18 8.11667 17.9833 7.975 17.95 7.85833C17.9167 7.74167 17.8556 7.63333 17.7667 7.53333L16.8167 6.26667C16.7278 6.16667 16.6278 6.09722 16.5167 6.05833C16.4056 6.01944 16.2701 6 16.1102 6H7.88977C7.72992 6 7.59167 6.01944 7.475 6.05833C7.35833 6.09722 7.25556 6.16667 7.16667 6.26667L6.23333 7.53333C6.14444 7.63333 6.08333 7.74167 6.05 7.85833C6.01667 7.975 6 8.11667 6 8.28333V17C6 17.2667 6.1 17.5 6.3 17.7ZM16.7 7.76667H7.28333L7.88333 7H16.0932L16.7 7.76667ZM7 17V8.76667H17V17H7ZM14.6 12.9L12 15.5L9.4 12.9L10.0667 12.2333L11.5 13.6667V10.3167H12.5V13.6667L13.9333 12.2333L14.6 12.9Z" fill="#757575"/>
</svg>
