<svg width="24" height="24" viewBox="0 0 24 24" fill="none" xmlns="http://www.w3.org/2000/svg">
<path fill-rule="evenodd" clip-rule="evenodd" d="M2 12C2 6.48 6.48 2 12 2C17.52 2 22 6.48 22 12C22 17.52 17.52 22 12 22C6.48 22 2 17.52 2 12ZM9.6375 14.377C9.33523 14.5965 8.99848 14.7063 8.62727 14.7063C8.18182 14.7063 7.79735 14.5659 7.47386 14.2852C7.15038 14.0044 6.96212 13.6497 6.90909 13.2209L6.575 10.4187H9.16818C9.7303 10.4187 10.1545 10.6714 10.4409 11.1767C10.7273 11.682 10.7591 12.2358 10.5364 12.8381L10.2977 13.5119C10.1598 13.8692 9.93977 14.1576 9.6375 14.377ZM16.5261 14.2775C16.2027 14.5633 15.8182 14.7063 15.3727 14.7063C15.0015 14.7063 14.6621 14.5965 14.3545 14.377C14.047 14.1576 13.8295 13.8692 13.7023 13.5119L13.4636 12.8534C13.2515 12.2409 13.2886 11.682 13.575 11.1767C13.8614 10.6714 14.2856 10.4187 14.8477 10.4187H17.425L17.0909 13.2056C17.0379 13.6344 16.8496 13.9917 16.5261 14.2775ZM6.85341 14.9666C7.3572 15.4055 7.95379 15.625 8.64318 15.625C9.2053 15.625 9.7197 15.4591 10.1864 15.1273C10.653 14.7956 10.9924 14.3541 11.2045 13.8028L11.4432 13.1597C11.475 13.0678 11.5042 12.9683 11.5307 12.8611C11.5572 12.7539 11.5811 12.634 11.6023 12.5013H12.3977C12.4189 12.6442 12.4428 12.7718 12.4693 12.8841C12.4958 12.9964 12.525 13.0984 12.5568 13.1903L12.7955 13.8181C13.0076 14.3694 13.347 14.8083 13.8136 15.135C14.2803 15.4617 14.7947 15.625 15.3568 15.625C16.0462 15.625 16.6428 15.4055 17.1466 14.9666C17.6504 14.5276 17.9447 13.9713 18.0295 13.2975L18.3955 10.4187H19V9.5H14.8955C14.4712 9.5 14.0655 9.61484 13.6784 9.84453C13.2913 10.0742 12.9598 10.3983 12.6841 10.8169H11.3318C11.0561 10.3983 10.7246 10.0742 10.3375 9.84453C9.95038 9.61484 9.5447 9.5 9.12045 9.5H5V10.4187H5.60455L5.97045 13.2975C6.0553 13.9713 6.34962 14.5276 6.85341 14.9666Z" fill="#9575CD"/>
</svg>
